<?xml version="1.0" encoding="utf-8"?>
<!-- Generator: Adobe Illustrator 16.0.0, SVG Export Plug-In . SVG Version: 6.00 Build 0)  -->
<!DOCTYPE svg PUBLIC "-//W3C//DTD SVG 1.1//EN" "http://www.w3.org/Graphics/SVG/1.1/DTD/svg11.dtd">
<svg version="1.1" id="Layer_1" xmlns="http://www.w3.org/2000/svg" xmlns:xlink="http://www.w3.org/1999/xlink" x="0px" y="0px"
	 width="116.63px" height="115.655px" viewBox="0 0 116.63 115.655" enable-background="new 0 0 116.63 115.655"
	 xml:space="preserve">
<g>
	<path fill="none" d="M108,61.655c0,7.271-1.446,14.201-4.052,20.532c4.243-7.437,6.682-16.03,6.682-25.188
		c0-28.121-22.879-51-51-51c-5.763,0-11.3,0.975-16.471,2.745c3.502-0.714,7.128-1.09,10.841-1.09
		C83.823,7.655,108,31.832,108,61.655z"/>
	<path fill="#EC7A4C" d="M8.63,57c0,28.121,22.879,51,51,51c18.964,0,35.531-10.412,44.318-25.812
		C106.554,75.856,108,68.926,108,61.655c0-29.823-24.177-54-54-54c-3.713,0-7.339,0.376-10.841,1.09
		C23.099,15.611,8.63,34.642,8.63,57z M29.199,63.451c2.489-5.079,3.128-8.275,3.128-9.655c0-1.379-0.471-2.522-0.471-4.103
		c0-1.582,0.639-6.225,2.927-10.899c2.288-4.678,10.462-13.626,24.692-13.626c17.021,0,25.298,10.058,25.298,23.885
		c0,13.826-9.655,19.251-11.018,20.235s-1.665,0.05-1.665,6.845s1.816,13.566,2.271,15.206s0.227,1.817-0.757,1.817
		c-0.984,0-22.707,0-24.221,0c-1.515,0-0.354-1.768-0.354-3.18c0-4.566-3.179-8.856-3.658-8.856s-3.28,1.54-6.838,1.54
		c-3.557,0-4.289-2.347-4.289-2.877c0-0.529,0.252-0.303,0.252-2.422c0-2.12-1.892-2.447-1.892-4.188
		c0-1.085,0.757-1.389,0.757-1.59s-1.312-0.932-1.312-1.613s0.579-1.161,0.579-1.666c0-0.504-0.26-1.22-0.706-1.354
		c-1.076-0.168-1.816-0.471-2.725-0.875S28.694,64.495,29.199,63.451z"/>
	<path fill="#EC7A4C" d="M49.614,48.06c1.009,0,1.912-0.439,2.537-1.136v4.063c0,0.928,0.752,1.679,1.679,1.679h4.069
		c-0.002,0.002-0.004,0.004-0.006,0.006c-0.695,0.624-1.136,1.526-1.136,2.537c0,1.883,1.526,3.41,3.411,3.41
		c1.884,0,3.411-1.527,3.411-3.41c0-1.011-0.44-1.913-1.137-2.537c-0.002-0.002-0.004-0.004-0.006-0.006h4.07
		c0.927,0,1.68-0.751,1.68-1.679v-4.025c0.623,0.673,1.508,1.098,2.497,1.098c1.884,0,3.411-1.527,3.411-3.411
		c0-1.883-1.527-3.41-3.411-3.41c-0.989,0-1.874,0.425-2.497,1.097V38.31c0-0.927-0.753-1.679-1.68-1.679h-4.064
		c0.696,0.624,1.137,1.527,1.137,2.535c0,1.886-1.527,3.413-3.411,3.413c-1.885,0-3.411-1.527-3.411-3.413
		c0-1.008,0.44-1.91,1.136-2.535H53.83c-0.927,0-1.679,0.752-1.679,1.679v4.064c-0.625-0.696-1.528-1.136-2.537-1.136
		c-1.885,0-3.411,1.527-3.411,3.41C46.203,46.532,47.729,48.06,49.614,48.06z"/>
	<path fill="#EC7A4C" d="M2.63,57c0-7.809,1.582-15.255,4.436-22.038C2.577,42.837,0,51.942,0,61.655c0,29.823,24.177,54,54,54
		c6.099,0,11.953-1.025,17.421-2.889C67.615,113.57,63.672,114,59.63,114C28.2,114,2.63,88.43,2.63,57z"/>
	<path fill="#D2352B" d="M59.63,0C36.009,0,15.701,14.444,7.066,34.962C4.211,41.745,2.63,49.191,2.63,57c0,31.43,25.57,57,57,57
		c4.042,0,7.985-0.43,11.791-1.233C97.211,107.319,116.63,84.388,116.63,57C116.63,25.57,91.06,0,59.63,0z M59.63,108
		c-28.121,0-51-22.879-51-51c0-22.358,14.469-41.389,34.529-48.255C48.33,6.975,53.867,6,59.63,6c28.121,0,51,22.879,51,51
		c0,9.157-2.438,17.751-6.682,25.188C95.161,97.588,78.594,108,59.63,108z"/>
</g>
</svg>
