<?xml version="1.0" encoding="utf-8"?>
<!-- Generator: Adobe Illustrator 16.0.0, SVG Export Plug-In . SVG Version: 6.00 Build 0)  -->
<!DOCTYPE svg PUBLIC "-//W3C//DTD SVG 1.1//EN" "http://www.w3.org/Graphics/SVG/1.1/DTD/svg11.dtd">
<svg version="1.1" id="Layer_1" xmlns="http://www.w3.org/2000/svg" xmlns:xlink="http://www.w3.org/1999/xlink" x="0px" y="0px"
	 width="116.63px" height="115.655px" viewBox="0 0 116.63 115.655" enable-background="new 0 0 116.63 115.655"
	 xml:space="preserve">
<g>
	<path fill="none" d="M108,61.655c0,7.271-1.446,14.201-4.052,20.532c4.243-7.437,6.682-16.03,6.682-25.188
		c0-28.121-22.878-51-51-51c-5.763,0-11.3,0.975-16.471,2.745c3.502-0.714,7.128-1.09,10.841-1.09
		C83.823,7.655,108,31.832,108,61.655z"/>
	<path fill="#F7B022" d="M8.63,57c0,28.121,22.878,51,51,51c18.964,0,35.531-10.412,44.318-25.812
		C106.554,75.856,108,68.926,108,61.655c0-29.823-24.177-54-54-54c-3.713,0-7.339,0.376-10.841,1.09
		C23.098,15.611,8.63,34.643,8.63,57z M79.574,86.066c0,2.914-2.363,5.276-5.277,5.276h-9.392V72.921c0-2.574-2.086-4.66-4.66-4.66
		h-5.35c-2.573,0-4.66,2.086-4.66,4.66v18.422h-9.607c-2.915,0-5.278-2.362-5.278-5.276V63.521L57.462,41.41l22.112,22.111V86.066z
		 M72.436,24.273c2.227,0,3.147,2.477,3.147,2.477s0.921-2.477,3.148-2.477c2.226,0,3.301,2.093,3.301,3.878
		c0,3.954-6.449,4.951-6.449,7.428c0-2.477-6.449-3.474-6.449-7.428C69.134,26.366,70.209,24.273,72.436,24.273z M28.093,57.966
		l7.721-7.721l2.663-2.663l5.361-5.36l6.643-6.643l1.42-1.421c1.534-1.533,3.548-2.3,5.562-2.3s4.029,0.767,5.562,2.3l1.42,1.421
		l6.213,6.214l0.934,0.934v-1.11c0-0.486,0.1-0.945,0.259-1.378c0.234-0.634,0.623-1.185,1.124-1.621
		c0.701-0.609,1.606-0.992,2.608-0.992c2.205,0,3.991,1.788,3.991,3.991v3.601v2.746v2.745l7.258,7.259
		c1.011,1.011,1.011,2.649,0,3.66c-0.505,0.506-1.168,0.758-1.83,0.758c-0.663,0-1.326-0.252-1.831-0.758l-3.597-3.597l-20.21-20.21
		c-0.524-0.524-1.212-0.786-1.901-0.786c-0.688,0-1.377,0.262-1.901,0.786l-20.21,20.21l-3.597,3.597
		c-0.506,0.506-1.168,0.758-1.831,0.758c-0.663,0-1.325-0.252-1.831-0.758C27.082,60.615,27.082,58.977,28.093,57.966z"/>
	<path fill="#F7B022" d="M2.63,57c0-7.809,1.582-15.255,4.436-22.038C2.577,42.837,0,51.942,0,61.655c0,29.823,24.177,54,54,54
		c6.098,0,11.954-1.025,17.421-2.889C67.615,113.57,63.672,114,59.63,114C28.2,114,2.63,88.43,2.63,57z"/>
	<path fill="#7A307D" d="M59.63,0C36.009,0,15.701,14.444,7.066,34.962C4.211,41.745,2.63,49.191,2.63,57c0,31.43,25.57,57,57,57
		c4.042,0,7.985-0.43,11.791-1.233C97.211,107.319,116.63,84.388,116.63,57C116.63,25.57,91.06,0,59.63,0z M59.63,108
		c-28.122,0-51-22.879-51-51c0-22.357,14.468-41.389,34.529-48.255C48.33,6.975,53.867,6,59.63,6c28.122,0,51,22.879,51,51
		c0,9.157-2.438,17.751-6.682,25.188C95.161,97.588,78.594,108,59.63,108z"/>
	<polygon fill="#FFFFFF" points="71.592,42.727 70.659,41.793 71.592,43.16 	"/>
</g>
</svg>
