<?xml version="1.0" encoding="utf-8"?>
<!-- Generator: Adobe Illustrator 16.0.0, SVG Export Plug-In . SVG Version: 6.00 Build 0)  -->
<!DOCTYPE svg PUBLIC "-//W3C//DTD SVG 1.1//EN" "http://www.w3.org/Graphics/SVG/1.1/DTD/svg11.dtd">
<svg version="1.1" id="Layer_1" xmlns="http://www.w3.org/2000/svg" xmlns:xlink="http://www.w3.org/1999/xlink" x="0px" y="0px"
	 width="116.63px" height="115.655px" viewBox="0 0 116.63 115.655" enable-background="new 0 0 116.63 115.655"
	 xml:space="preserve">
<g>
	<path fill="none" d="M108,61.655c0,7.271-1.446,14.201-4.052,20.532c4.243-7.437,6.682-16.03,6.682-25.188
		c0-28.121-22.878-51-51-51c-5.763,0-11.3,0.975-16.471,2.745c3.502-0.714,7.128-1.09,10.841-1.09
		C83.823,7.655,108,31.832,108,61.655z"/>
	<path fill="#09A7E0" d="M2.63,57c0-7.809,1.582-15.255,4.436-22.038C2.577,42.837,0,51.942,0,61.655c0,29.823,24.177,54,54,54
		c6.098,0,11.954-1.025,17.421-2.889C67.615,113.57,63.672,114,59.63,114C28.2,114,2.63,88.43,2.63,57z"/>
	<path fill="#09A7E0" d="M8.63,57c0,28.121,22.878,51,51,51c18.964,0,35.531-10.412,44.318-25.812
		C106.554,75.856,108,68.926,108,61.655c0-29.823-24.177-54-54-54c-3.713,0-7.339,0.376-10.841,1.09
		C23.098,15.611,8.63,34.643,8.63,57z M76.985,32.444c7.385,0,13.372,5.986,13.372,13.372c0,5.717-3.596,10.583-8.644,12.494
		c0,0,12.301,0.441,15.49,15.08c0.316,1.556-9.162,2.367-16.309,2.594c-2.173-4.736-5.248-7.76-8.055-9.657
		c2.12-3.09,3.333-6.799,3.333-10.681c0-7.41-4.281-13.835-10.497-16.944C68.045,34.947,72.219,32.444,76.985,32.444z
		 M53.513,42.811c0.881-0.254,1.798-0.418,2.744-0.486c0.326-0.025,0.651-0.05,0.984-0.05c0.384,0,0.762,0.024,1.138,0.057
		c0.944,0.08,1.861,0.253,2.739,0.519c0.926,0.28,1.809,0.66,2.637,1.124c4.089,2.287,6.857,6.655,6.857,11.673
		c0,0.623-0.051,1.234-0.133,1.835c-0.053,0.381-0.119,0.758-0.203,1.129c-0.987,4.345-4.093,7.876-8.172,9.473
		c0.008,0.022,0.016,0.046,0.023,0.067c1.125,0.088,8.096,0.909,12.482,7.875c0.53,0.84,1.021,1.772,1.46,2.803
		c0.366,0.857,0.697,1.782,0.981,2.786c0.146,0.518,0.287,1.049,0.408,1.607c0.379,1.863-13.323,2.659-20.204,2.659h-0.029
		c-6.88,0-20.583-0.796-20.203-2.659c0.121-0.559,0.261-1.091,0.408-1.609c0.284-1.002,0.614-1.927,0.98-2.784
		c0.439-1.029,0.929-1.96,1.458-2.799c4.783-7.599,12.644-7.89,12.644-7.89c-4.158-1.573-7.325-5.153-8.314-9.563
		c-0.075-0.335-0.138-0.675-0.187-1.02c-0.09-0.624-0.142-1.261-0.142-1.91c0-5.078,2.831-9.495,6.999-11.759
		C51.699,43.437,52.587,43.08,53.513,42.811z M37.651,32.444c4.742,0,8.897,2.476,11.271,6.197
		c-6.281,3.085-10.616,9.547-10.616,17.005c0,3.889,1.218,7.604,3.344,10.695c-3.062,2.088-5.996,5.191-8.052,9.638
		c-7.13-0.233-16.481-1.044-16.167-2.589c3.189-14.639,15.49-15.08,15.49-15.08c-5.048-1.911-8.644-6.777-8.644-12.494
		C24.279,38.431,30.266,32.444,37.651,32.444z"/>
	<path fill="#09A7E0" d="M61.203,78.146c1.08,1.2,3.164,1.817,3.229,2.89c0.005,0,0.01,0.001,0.016,0.001
		c0.057-0.97,1.762-1.567,2.89-2.559c0.556-0.49,0.973-1.075,0.973-1.851c0-0.29-0.051-0.591-0.146-0.88
		c-0.257-0.777-0.86-1.447-1.835-1.447c-0.939,0-1.484,0.728-1.729,1.163c-0.104,0.186-0.16,0.322-0.16,0.322
		s-0.062-0.153-0.179-0.355c-0.169-0.292-0.468-0.688-0.921-0.928c-0.226-0.118-0.484-0.202-0.789-0.202
		c-0.654,0-1.14,0.304-1.468,0.735c-0.343,0.451-0.513,1.045-0.513,1.592c0,0.464,0.15,0.856,0.387,1.205
		C61.031,77.941,61.113,78.046,61.203,78.146z"/>
	<path fill="#0E62AB" d="M59.63,0C36.009,0,15.701,14.444,7.066,34.962C4.211,41.745,2.63,49.191,2.63,57c0,31.43,25.57,57,57,57
		c4.042,0,7.985-0.43,11.791-1.233C97.211,107.319,116.63,84.388,116.63,57C116.63,25.57,91.06,0,59.63,0z M59.63,108
		c-28.122,0-51-22.879-51-51c0-22.357,14.468-41.389,34.529-48.255C48.33,6.975,53.867,6,59.63,6c28.122,0,51,22.879,51,51
		c0,9.157-2.438,17.751-6.682,25.188C95.161,97.588,78.594,108,59.63,108z"/>
	<path fill="#FFFFFF" d="M62.128,68.15c-0.008-0.021-0.016-0.045-0.023-0.067c-0.046,0.018-0.089,0.04-0.135,0.057
		C61.969,68.14,62.026,68.144,62.128,68.15z"/>
	<path fill="#FFFFFF" d="M64.439,81.086c0-0.017,0.007-0.031,0.008-0.049c-0.005,0-0.01-0.001-0.016-0.001
		C64.432,81.053,64.439,81.068,64.439,81.086z"/>
</g>
</svg>
