<?xml version="1.0" encoding="utf-8"?>
<!-- Generator: Adobe Illustrator 16.0.0, SVG Export Plug-In . SVG Version: 6.00 Build 0)  -->
<!DOCTYPE svg PUBLIC "-//W3C//DTD SVG 1.1//EN" "http://www.w3.org/Graphics/SVG/1.1/DTD/svg11.dtd">
<svg version="1.1" id="Layer_1" xmlns="http://www.w3.org/2000/svg" xmlns:xlink="http://www.w3.org/1999/xlink" x="0px" y="0px"
	 width="116.63px" height="115.655px" viewBox="0 0 116.63 115.655" enable-background="new 0 0 116.63 115.655"
	 xml:space="preserve">
<g>
	<path fill="none" d="M108,61.655c0,7.271-1.446,14.201-4.052,20.532c4.243-7.437,6.682-16.03,6.682-25.188
		c0-28.121-22.879-51-51-51c-5.763,0-11.3,0.975-16.471,2.745c3.502-0.714,7.128-1.09,10.841-1.09
		C83.823,7.655,108,31.832,108,61.655z"/>
	<path fill="#855CA3" d="M63.488,46.173c2.973,0,5.381-2.409,5.381-5.381c0-2.973-2.408-5.382-5.381-5.382
		c-2.975,0-5.382,2.409-5.382,5.382C58.106,43.764,60.514,46.173,63.488,46.173z"/>
	<circle fill="#855CA3" cx="49.933" cy="40.792" r="5.382"/>
	<path fill="#855CA3" d="M38.438,63.587c1.754,0,2.241-1.754,2.241-1.754l3.669-7.08c0,0,0.91,7.178,0.91,7.566
		c0,0.39-1.852,15.621-1.852,16.302c0,0.684,0.618,2.694,2.466,2.694c2.112,0,2.566-1.654,2.697-2.856
		c0.128-1.199,1.362-9.872,1.362-9.872h0.293l1.332,9.84c0,0,0.064,2.881,2.524,2.889l-0.196-6.59h-1.907
		c0,0,1.72-7.601,1.688-8.085c-0.164,0.03-4.774,1.917-5.358,1.917c-0.582,0-0.941-0.426-0.941-0.977
		c0-0.553,0.779-1.04,1.301-1.299c0.519-0.26,3.83-2.241,4.381-2.565c0.553-0.325,1.104-0.552,1.819-0.552h1.98h0.302h1.982
		c0.715,0,1.269,0.227,1.818,0.552c0.551,0.324,3.865,2.306,4.385,2.565c0.519,0.258,1.297,0.746,1.297,1.299
		c0,0.551-0.356,0.977-0.94,0.977c-0.585,0-5.196-1.887-5.357-1.917c-0.033,0.484,1.688,8.085,1.688,8.085h-1.906l-0.195,6.59
		c0.361,0,0.64,0,0.792,0c0.942,0,1.625-0.551,1.786-2.336c0.163-1.789,0.928-10.422,0.928-10.422h0.242
		c0,0,0.729,9.301,0.803,10.297c0.074,0.999,0.463,2.461,1.853,2.461c1.388,0,1.825-0.926,1.777-2.629
		c-0.05-1.706-0.293-11.424-0.293-11.424s3.02,0,3.335,0c0.318,0,0.514-0.073,0.318-0.753c-0.195-0.683-2.437-10.474-2.484-10.667
		c-0.051-0.195-0.122-0.706,0.34-0.098c0.464,0.607,5.092,6.04,5.627,6.526c0.536,0.485,0.73,0.606,1.388,0.606
		s1.802-0.508,1.802-1.8c0-0.729-0.266-1.05-0.878-1.778c-0.607-0.729-7.622-9.717-7.914-10.156
		c-0.291-0.437-0.534-0.947-1.849-0.947c-1.318,0-10.619,0-10.619,0h-6.941c-3.148,0-5.521,0-6.071,0
		c-0.553,0-1.071,0.29-1.525,1.233c-0.455,0.941-5.034,10.26-5.326,10.812c-0.292,0.552-0.454,1.234-0.454,1.461
		C36.556,61.931,36.688,63.587,38.438,63.587z M56.874,56.176c1.65,0,2.99,1.34,2.99,2.989c0,1.65-1.34,2.991-2.99,2.991
		c-1.651,0-2.988-1.341-2.988-2.991C53.886,57.516,55.223,56.176,56.874,56.176z"/>
	<path fill="#855CA3" d="M8.63,57c0,28.121,22.879,51,51,51c18.964,0,35.531-10.412,44.318-25.812
		C106.554,75.856,108,68.926,108,61.655c0-29.823-24.177-54-54-54c-3.713,0-7.339,0.376-10.841,1.09
		C23.099,15.611,8.63,34.642,8.63,57z M27.259,37.266c2.208-1,24.417-11.666,25.708-12.25s2.053-1.124,3.586-1.124
		s2.295,0.54,3.586,1.124s23.5,11.25,25.708,12.25s3.042,2.625,3.042,5.042s-0.002,3.688-0.564,9.125s-2.25,29.375-28.188,42
		c-1.312,0.5-2.543,1-3.584,1s-2.271-0.5-3.584-1c-25.938-12.625-27.625-36.562-28.188-42s-0.564-6.708-0.564-9.125
		S25.051,38.266,27.259,37.266z"/>
	<path fill="#855CA3" d="M2.63,57c0-7.809,1.581-15.255,4.437-22.038C2.577,42.837,0,51.942,0,61.655c0,29.823,24.177,54,54,54
		c6.099,0,11.953-1.025,17.421-2.889C67.615,113.57,63.672,114,59.63,114C28.2,114,2.63,88.43,2.63,57z"/>
	<path fill="#855CA3" d="M56.874,74.985l-0.458,6.33c0.377,0,0.774,0,1.169,0l-0.459-6.33H56.874z"/>
	<path fill="#3AC1CF" d="M59.63,0C36.009,0,15.701,14.444,7.066,34.962C4.211,41.745,2.63,49.191,2.63,57c0,31.43,25.57,57,57,57
		c4.042,0,7.985-0.43,11.791-1.233C97.211,107.319,116.63,84.388,116.63,57C116.63,25.57,91.06,0,59.63,0z M59.63,108
		c-28.121,0-51-22.879-51-51c0-22.358,14.469-41.389,34.529-48.255C48.33,6.975,53.867,6,59.63,6c28.121,0,51,22.879,51,51
		c0,9.157-2.438,17.751-6.682,25.188C95.161,97.588,78.594,108,59.63,108z"/>
</g>
</svg>
