<?xml version="1.0" encoding="utf-8"?>
<!-- Generator: Adobe Illustrator 16.0.0, SVG Export Plug-In . SVG Version: 6.00 Build 0)  -->
<!DOCTYPE svg PUBLIC "-//W3C//DTD SVG 1.1//EN" "http://www.w3.org/Graphics/SVG/1.1/DTD/svg11.dtd">
<svg version="1.1" id="Layer_1" xmlns="http://www.w3.org/2000/svg" xmlns:xlink="http://www.w3.org/1999/xlink" x="0px" y="0px"
	 width="116.63px" height="115.655px" viewBox="0 0 116.63 115.655" enable-background="new 0 0 116.63 115.655"
	 xml:space="preserve">
<g>
	<path fill="none" d="M108,61.655c0,7.271-1.446,14.201-4.052,20.532c4.243-7.437,6.682-16.03,6.682-25.188
		c0-28.121-22.879-51-51-51c-5.763,0-11.3,0.975-16.471,2.745c3.502-0.714,7.128-1.09,10.841-1.09
		C83.823,7.655,108,31.832,108,61.655z"/>
	<path fill="#EE839B" d="M38.562,46.608c2.315,1.008,5.021-0.056,6.026-2.372c1.007-2.316-0.056-5.017-2.374-6.024
		c-2.313-1.009-5.017,0.057-6.023,2.371C35.183,42.898,36.25,45.603,38.562,46.608z"/>
	<path fill="#EE839B" d="M2.63,57c0-7.809,1.581-15.255,4.437-22.038C2.577,42.837,0,51.942,0,61.655c0,29.823,24.177,54,54,54
		c6.099,0,11.953-1.025,17.421-2.889C67.615,113.57,63.672,114,59.63,114C28.2,114,2.63,88.43,2.63,57z"/>
	<path fill="#EE839B" d="M8.63,57c0,28.121,22.879,51,51,51c18.964,0,35.531-10.412,44.318-25.812
		C106.554,75.856,108,68.926,108,61.655c0-29.823-24.177-54-54-54c-3.713,0-7.339,0.376-10.841,1.09
		C23.099,15.611,8.63,34.642,8.63,57z M53.55,40.024c-0.254-0.034-0.479-0.178-0.619-0.39c-0.142-0.214-0.184-0.477-0.121-0.724
		c0.362-1.358,0.917-2.657,1.648-3.862c0.137-0.221,0.355-0.371,0.607-0.415c0.252-0.047,0.511,0.02,0.712,0.178
		c1.011,0.798,2.463,0.725,3.375-0.168c0.915-0.895,1.016-2.342,0.24-3.366c-0.153-0.208-0.209-0.469-0.161-0.719
		c0.036-0.178,0.123-0.337,0.25-0.462c0.053-0.052,0.113-0.096,0.177-0.134c1.222-0.709,2.533-1.234,3.898-1.565
		c0.249-0.06,0.514-0.012,0.722,0.133c0.21,0.147,0.347,0.377,0.378,0.63c0.151,1.279,1.226,2.253,2.503,2.27
		c1.244,0.013,2.378-0.977,2.557-2.216c0.034-0.249,0.179-0.475,0.39-0.62c0.213-0.141,0.477-0.183,0.725-0.117
		c1.362,0.36,2.662,0.917,3.861,1.649c0.219,0.134,0.372,0.356,0.417,0.607c0.042,0.251-0.021,0.51-0.18,0.711
		c-0.798,1.01-0.726,2.461,0.169,3.374c0.893,0.913,2.34,1.018,3.367,0.241c0.205-0.152,0.467-0.212,0.718-0.162
		c0.249,0.051,0.467,0.206,0.595,0.426c0.706,1.218,1.234,2.529,1.565,3.901c0.06,0.248,0.013,0.509-0.137,0.721
		c-0.146,0.207-0.373,0.347-0.626,0.377c-1.24,0.146-2.254,1.261-2.267,2.504c-0.015,1.278,0.936,2.376,2.209,2.555
		c0.254,0.034,0.482,0.176,0.622,0.39c0.141,0.212,0.186,0.477,0.119,0.724c-0.358,1.358-0.918,2.657-1.65,3.864
		c-0.135,0.22-0.356,0.371-0.606,0.417c-0.249,0.043-0.512-0.022-0.714-0.179c-1.008-0.799-2.456-0.727-3.37,0.167
		c-0.912,0.894-1.018,2.344-0.244,3.369c0.155,0.205,0.213,0.465,0.162,0.717c-0.05,0.25-0.204,0.465-0.428,0.595
		c-1.221,0.707-2.533,1.236-3.898,1.565c-0.247,0.06-0.511,0.011-0.722-0.135c-0.206-0.146-0.347-0.377-0.375-0.629
		c-0.152-1.279-1.225-2.256-2.504-2.267c-1.247-0.013-2.382,0.978-2.555,2.209c-0.033,0.255-0.178,0.479-0.392,0.623
		c-0.211,0.142-0.477,0.185-0.723,0.118c-1.362-0.36-2.661-0.917-3.865-1.649c-0.218-0.133-0.368-0.354-0.412-0.606
		c-0.045-0.252,0.019-0.51,0.175-0.712c0.8-1.009,0.727-2.46-0.167-3.373c-0.894-0.914-2.342-1.018-3.368-0.242
		c-0.204,0.154-0.465,0.213-0.716,0.163c-0.249-0.05-0.469-0.206-0.595-0.428c-0.709-1.22-1.233-2.531-1.567-3.899
		c-0.059-0.248-0.012-0.512,0.134-0.723c0.147-0.208,0.378-0.347,0.63-0.376c1.24-0.147,2.254-1.259,2.266-2.505
		C55.776,41.304,54.824,40.205,53.55,40.024z M29.242,40.603c0.032-0.196,0.146-0.363,0.312-0.471
		c0.165-0.103,0.369-0.135,0.556-0.08c0.951,0.276,1.96-0.195,2.35-1.094c0.39-0.897,0.047-1.957-0.8-2.462
		c-0.169-0.104-0.287-0.268-0.323-0.462c-0.037-0.192,0.015-0.395,0.134-0.546c0.661-0.857,1.439-1.607,2.315-2.239
		c0.16-0.116,0.361-0.156,0.553-0.11c0.189,0.041,0.355,0.165,0.45,0.337c0.464,0.837,1.545,1.235,2.433,0.886
		c0.91-0.357,1.418-1.352,1.178-2.311c-0.047-0.189-0.01-0.39,0.101-0.553c0.107-0.16,0.283-0.269,0.478-0.292
		c1.071-0.136,2.153-0.116,3.223,0.056c0.191,0.032,0.364,0.145,0.468,0.312c0.106,0.166,0.134,0.368,0.077,0.558
		c-0.275,0.946,0.196,1.958,1.094,2.349c0.903,0.391,1.961,0.046,2.465-0.801c0.104-0.169,0.272-0.286,0.462-0.321
		c0.138-0.026,0.277-0.011,0.403,0.042c0.052,0.025,0.103,0.055,0.146,0.089c0.852,0.663,1.605,1.443,2.238,2.318
		c0.112,0.158,0.154,0.358,0.11,0.552c-0.042,0.189-0.165,0.355-0.338,0.45c-0.866,0.473-1.246,1.521-0.889,2.436
		c0.353,0.885,1.382,1.407,2.312,1.172c0.189-0.047,0.39-0.009,0.553,0.101c0.164,0.111,0.271,0.286,0.294,0.48
		c0.137,1.071,0.119,2.156-0.059,3.223c-0.029,0.193-0.145,0.363-0.312,0.47c-0.164,0.104-0.367,0.132-0.554,0.076
		c-0.95-0.274-1.961,0.195-2.349,1.096c-0.391,0.897-0.049,1.957,0.8,2.464c0.167,0.101,0.286,0.269,0.32,0.461
		c0.038,0.192-0.007,0.393-0.131,0.548c-0.659,0.852-1.438,1.605-2.316,2.237c-0.162,0.114-0.361,0.157-0.552,0.113
		c-0.19-0.046-0.356-0.166-0.45-0.34c-0.464-0.838-1.546-1.236-2.434-0.888c-0.914,0.36-1.421,1.353-1.178,2.311
		c0.048,0.189,0.013,0.392-0.097,0.554c-0.112,0.161-0.285,0.269-0.48,0.293c-1.067,0.138-2.154,0.117-3.223-0.056
		c-0.193-0.034-0.367-0.146-0.47-0.312c-0.105-0.164-0.133-0.367-0.08-0.557c0.274-0.947-0.194-1.957-1.095-2.348
		c-0.896-0.392-1.957-0.048-2.461,0.802c-0.104,0.166-0.27,0.284-0.465,0.32c-0.19,0.037-0.389-0.012-0.546-0.133
		c-0.855-0.664-1.608-1.442-2.237-2.317c-0.116-0.16-0.156-0.361-0.115-0.553c0.044-0.188,0.171-0.354,0.343-0.448
		c0.863-0.476,1.243-1.522,0.887-2.437c-0.352-0.889-1.382-1.407-2.309-1.175c-0.189,0.049-0.392,0.015-0.556-0.097
		s-0.271-0.286-0.293-0.481C29.048,42.753,29.069,41.668,29.242,40.603z M33.167,64.14c2.453-2.401,6.439-5.093,11.727-5.093
		c3.349,0,5.093,0.973,6.198,1.369c1.104,0.396,1.31,0.444,2.101,0.444c0.793,0,11.399-0.012,13.585-0.012
		c2.188,0,3.965,2.186,3.965,4.492s-1.899,4.277-4.372,4.277c-2.474,0-7.087,0-8.481,0c-1.392,0-1.873,1.08-1.873,1.839
		c0,0.757,0.744,1.667,1.681,1.667c0.938,0,1.875,0,8.529,0s7.976-6.461,7.976-7.135c0-0.672,0.18-0.805,0.336-0.961
		c0.156-0.155,1.297-1.561,1.297-1.561s3.1-3.604,5.262-5.838c1.248-1.321,2.042-2.667,4.565-2.667c3.964,0,4.42,3.267,4.42,4.492
		c0,0.864-0.192,1.922-1.393,3.388c-1.202,1.466-9.755,11.146-13.791,15.735c-4.035,4.588-6.101,5.454-9.417,5.454
		c-2.522,0-22.125-0.024-22.99-0.024s-0.89,0.145-1.129,0.433s-2.812,2.931-3.076,3.267c-0.264,0.336-0.624,0.312-0.959,0
		c-0.337-0.312-12.469-12.18-13.167-12.828c-0.697-0.649-0.793-0.937-0.312-1.467C24.328,72.884,30.718,66.542,33.167,64.14z"/>
	<path fill="#EE839B" d="M71.211,46.973c2.353-2.304,2.394-6.091,0.093-8.444c-2.301-2.353-6.088-2.395-8.442-0.091
		c-2.351,2.301-2.394,6.088-0.093,8.44C65.071,49.231,68.858,49.272,71.211,46.973z"/>
	<path fill="#F7B022" d="M59.63,0C36.009,0,15.701,14.444,7.066,34.962C4.211,41.745,2.63,49.191,2.63,57c0,31.43,25.57,57,57,57
		c4.042,0,7.985-0.43,11.791-1.233C97.211,107.319,116.63,84.388,116.63,57C116.63,25.57,91.06,0,59.63,0z M59.63,108
		c-28.121,0-51-22.879-51-51c0-22.358,14.469-41.389,34.529-48.255C48.33,6.975,53.867,6,59.63,6c28.121,0,51,22.879,51,51
		c0,9.157-2.438,17.751-6.682,25.188C95.161,97.588,78.594,108,59.63,108z"/>
</g>
</svg>
