<?xml version="1.0" encoding="utf-8"?>
<!-- Generator: Adobe Illustrator 16.0.0, SVG Export Plug-In . SVG Version: 6.00 Build 0)  -->
<!DOCTYPE svg PUBLIC "-//W3C//DTD SVG 1.1//EN" "http://www.w3.org/Graphics/SVG/1.1/DTD/svg11.dtd">
<svg version="1.1" id="Layer_1" xmlns="http://www.w3.org/2000/svg" xmlns:xlink="http://www.w3.org/1999/xlink" x="0px" y="0px"
	 width="485.156px" height="274.407px" viewBox="0 0 485.156 274.407" enable-background="new 0 0 485.156 274.407"
	 xml:space="preserve">
<g>
	<polygon fill="#F6AF26" points="40.575,43.301 44.244,114.651 88.924,93.549 51.214,38.715 	"/>
	<path fill="#77317A" d="M42.743,47.301c-1.408,20.361-1.986,40.732-3.744,61.085l0.057,0.649c0.068,0.96,0.918,1.689,1.858,1.657
		l1.483-0.117c7.014-2.356,13.968-4.787,21.019-7.029c9.729-3.045,19.979-2.939,29.969-4.646l0.734-0.179
		c0.739-0.156,1.271-0.748,1.393-1.517l0.054-1.636c-2.932-8.911-8.654-16.412-14.036-24.215
		c-6.079-8.841-14.688-14.827-22.077-22.466c-1.306-1.337-2.355-2.856-3.387-4.413c-0.562-0.828-1.676-1.023-2.5-0.46
		c-0.828,0.562-1.015,1.704-0.451,2.53c5.935,8.504,14.61,14.41,21.675,22.027c6.349,6.814,10.173,14.981,15.317,22.834
		c0.687,1.008,1.03,2.127,1.357,3.286l0.46,2.036l1.395-1.517l-1.331,0.286c0.03-0.008,0.03-0.008,0.057-0.017
		c-8.993,1.467-18.179,1.507-27.073,3.924c-7.394,1.979-14.48,4.77-21.729,7.077l-2.462,0.606l1.885,1.65l-0.078-1.463
		c1.95-19.783,2.255-39.651,3.749-59.469c0.111-0.99-0.576-1.902-1.545-2.053C43.804,45.646,42.893,46.332,42.743,47.301
		L42.743,47.301z"/>
	<path fill="#F3BDA0" d="M67.905,57.717c10.682-0.815,19.011,6.921,29.043,9.046c1.615,0.351,3.273,0.346,4.946,0.252
		c0.989-0.048,1.775-0.904,1.728-1.896c-0.047-0.99-0.905-1.775-1.895-1.729c-1.285,0.142-2.605,0.155-3.869-0.126
		c-10.256-2.387-18.964-10.072-29.996-9.176c-0.986,0.019-1.793,0.836-1.775,1.823C66.07,56.918,66.892,57.726,67.905,57.717
		L67.905,57.717z"/>
	<path fill="#F3BDA0" d="M40.169,61.361c-10.999,5.125-21.94,10.323-32.902,15.559c-0.9,0.432-1.269,1.507-0.869,2.42
		c0.429,0.899,1.504,1.268,2.417,0.866c11.008-5.378,22.102-10.503,33.169-15.71c0.873-0.515,1.135-1.62,0.659-2.474
		C42.128,61.147,41.025,60.883,40.169,61.361L40.169,61.361z"/>
	<path fill="#F3BDA0" d="M99.536,61.441c-1.794,1.247-2.983,3.014-2.84,5.933l0.031,0.431c0.089,0.355,0.268,0.648,0.505,0.867
		l1.494,1.147c1.095,0.419,2.247,0.44,3.414,0.498l1.037-0.187c0.343-0.059,0.704-0.244,0.945-0.54l0.956-0.987
		c0.201-0.279,0.386-0.593,0.588-0.87l0.538-1.242c0.355-0.509,0.423-1.19,0.189-1.763l-0.561-1.147
		c-0.986-1.47-2.544-2.189-4.086-2.876c-0.893-0.437-1.978-0.044-2.415,0.854c-0.438,0.892-0.045,1.975,0.851,2.413
		c0.651,0.313,1.306,0.624,1.99,0.855l0.896,1.369l-0.104-1.165l-0.234,0.619c0,0,0,0-1.207,1.472c0,0,0,0,0.975-0.528
		c0,0,0,0-0.973,0.271l0,0c-1.767-0.771-1.767-0.771-1.767-0.771c0.479,0.857,0.479,0.857,0.479,0.857
		c0.153-1.164,0.153-1.164,0.438-1.989c0.894-0.238,1.312-0.914,2.043-1.57c0.049-1.139-0.633-1.88-1.327-2.598
		C100.25,60.747,99.536,61.441,99.536,61.441z"/>
	<path fill="#F3BDA0" d="M9.036,76.706c-0.325-0.588-0.629-1.217-0.957-1.805l-0.132-0.209c-0.371-0.254-0.818-0.358-1.265-0.271
		l-0.666,0.096c-2.861,0.552-4.813,2.95-5.815,5.54c-0.756,1.903,0.75,3.648,2.407,4.425c3.226,1.485,6.569-0.272,8.713-2.673
		c0.796-0.934,1.707-1.812,1.218-3.455c0.018-0.99-0.736-1.813-1.733-1.86c-0.999-0.042-1.825,0.708-1.87,1.706
		c-0.104,0.448-0.094,1.047-0.367,1.268c-1.332,0.952-2.248,2.659-4.694,1.61c0.584-1.277,1.22-2.506,2.748-3.146l0.564,0.065
		L5.91,77.692l1.425-0.383c-0.569,0.19-1.131,0.412-1.701,0.604c0.355,0.96,1.373,1.442,2.302,1.098
		C8.897,78.657,9.379,77.637,9.036,76.706L9.036,76.706z"/>
	<path fill="#77317A" d="M52.666,110.076c3.579,9.234,6.538,18.708,9.747,28.066c0.317,0.939,1.344,1.451,2.284,1.136
		c0.942-0.316,1.452-1.345,1.137-2.284c-3.226-9.418-6.197-18.918-9.795-28.211c-0.343-0.929-1.391-1.402-2.321-1.058
		C52.794,108.096,52.321,109.146,52.666,110.076L52.666,110.076z"/>
	<path fill="#77317A" d="M77.474,105.643c1.867,9.144,6.497,17.359,10.312,25.783c0.478,0.855,1.569,1.186,2.454,0.698
		c0.845-0.506,1.176-1.599,0.689-2.483c-3.596-8.149-8.141-16.015-9.928-24.836c-0.231-0.968-1.194-1.566-2.164-1.335
		C77.869,103.702,77.245,104.674,77.474,105.643L77.474,105.643z"/>
	<g>
		<path fill="#D0392B" d="M55.923,139.973c0.593,1.767,1.186,3.533,1.781,5.305c0.316,0.938,1.344,1.449,2.286,1.135
			c0.939-0.317,1.45-1.345,1.135-2.288c-0.593-1.766-1.188-3.533-1.782-5.299c-0.326-0.97-1.343-1.451-2.285-1.136
			C56.119,138.005,55.596,139.003,55.923,139.973L55.923,139.973z"/>
		<path fill="#D0392B" d="M57.484,141.322c1.267,0.652,2.467,1.391,3.751,2.005c0.887,0.465,1.98,0.128,2.415-0.747
			c0.463-0.882,0.127-1.979-0.757-2.44c-1.21-0.674-2.487-1.259-3.677-1.971c-0.855-0.474-1.958-0.167-2.424,0.72
			C56.293,139.755,56.628,140.848,57.484,141.322L57.484,141.322z"/>
		<path fill="#D0392B" d="M62.129,147.213c1.101-1.16,1.688-2.627,2.311-4.074c0.465-0.884,0.129-1.981-0.784-2.432
			c-0.875-0.436-1.97-0.099-2.405,0.777c-0.615,1.283-1.039,2.661-2.121,3.694c-0.548,0.814-0.328,1.949,0.491,2.495
			C60.45,148.255,61.551,148.042,62.129,147.213L62.129,147.213z"/>
		<path fill="#D0392B" d="M62.701,143.438c1.116,1.148,2.789,1.413,3.941,2.483c0.802,0.585,1.941,0.393,2.52-0.435
			c0.551-0.819,0.367-1.931-0.463-2.509c-1.094-1.093-2.76-1.323-3.836-2.455c-0.8-0.589-1.942-0.396-2.528,0.405
			C61.746,141.727,61.9,142.848,62.701,143.438L62.701,143.438z"/>
		<path fill="#D0392B" d="M65.76,142.537c1.423-1.715,3.312-2.889,4.925-4.416c0.787-0.58,0.976-1.719,0.394-2.509
			c-0.593-0.815-1.723-0.975-2.541-0.385c-1.85,1.669-3.911,3.09-5.522,4.998c-0.636,0.75-0.538,1.891,0.216,2.524
			C63.983,143.387,65.125,143.289,65.76,142.537L65.76,142.537z"/>
		<path fill="#D0392B" d="M67.756,137.806c0.213,2.243-0.151,4.556,0.435,6.771c0.173,0.986,1.116,1.622,2.076,1.46
			c0.979-0.205,1.651-1.127,1.449-2.108c-0.48-2.086-0.143-4.199-0.376-6.311c-0.048-0.999-0.878-1.768-1.876-1.716
			C68.474,135.979,67.707,136.806,67.756,137.806L67.756,137.806z"/>
	</g>
	<g>
		<path fill="#D0392B" d="M83,134.366c0.282,2.634,1.105,5.181,2.442,7.459c0.458,0.893,1.554,1.226,2.446,0.764
			c0.864-0.447,1.223-1.553,0.736-2.437c-1.204-1.878-1.808-4.053-2.042-6.26c-0.146-0.998-1.039-1.681-2.019-1.575
			C83.566,132.462,82.883,133.358,83,134.366L83,134.366z"/>
		<path fill="#D0392B" d="M85.42,136.375c1.009,0.359,1.99,0.823,2.932,1.363c0.896,0.494,1.988,0.157,2.462-0.701
			c0.463-0.883,0.156-1.983-0.729-2.449c-1.009-0.738-2.225-0.965-3.314-1.553c-0.922-0.387-1.947,0.054-2.334,0.978
			C84.048,134.934,84.496,135.987,85.42,136.375L85.42,136.375z"/>
		<path fill="#D0392B" d="M91.69,141.915c0.167-1.767,0.239-3.537,0.606-5.279c0.208-0.989-0.396-1.928-1.366-2.173
			c-0.96-0.216-1.928,0.394-2.173,1.362c-0.442,1.896-0.429,3.823-0.673,5.748c-0.082,0.978,0.624,1.853,1.613,1.963
			C90.686,143.647,91.588,142.935,91.69,141.915L91.69,141.915z"/>
		<path fill="#D0392B" d="M93.483,136.298c0.691-1.532,1.545-2.959,2.349-4.434c0.463-0.887,0.156-1.988-0.729-2.453
			c-0.856-0.474-1.959-0.166-2.46,0.699c-0.776,1.562-1.762,2.973-2.425,4.592c-0.426,0.905-0.061,1.985,0.844,2.411
			C91.947,137.579,93.02,137.187,93.483,136.298L93.483,136.298z"/>
		<path fill="#D0392B" d="M93.483,132.43c0.7,2.366,2.104,4.466,2.804,6.83c0.343,0.93,1.391,1.403,2.321,1.059
			c0.932-0.342,1.415-1.361,1.071-2.292c-0.691-2.339-2.026-4.427-2.773-6.746c-0.328-0.968-1.345-1.452-2.287-1.135
			C93.68,130.46,93.159,131.458,93.483,132.43L93.483,132.43z"/>
		<path fill="#D0392B" d="M91.96,138.655c1.465,0.869,3.063,1.379,4.681,1.852c0.981,0.273,1.967-0.281,2.25-1.232
			c0.284-0.952-0.24-1.952-1.223-2.225c-1.416-0.444-2.854-0.751-4.101-1.635c-0.888-0.462-1.969-0.097-2.424,0.816
			C90.709,137.105,91.072,138.189,91.96,138.655L91.96,138.655z"/>
	</g>
	<path fill="#77317A" d="M58.959,149.484c-2.039,2.907-3.322,6.73-1.565,10.076l0.202,0.503c0.192,0.566,0.648,0.987,1.209,1.148
		l1.771,0.26c5.063-1.352,9.514-5.193,12.339-9.537c0.474-0.858,0.193-1.967-0.673-2.471c-0.865-0.503-1.969-0.197-2.47,0.67
		c-2.112,3.346-5.321,5.881-8.788,7.553l-1.217,0.061l1.23,1.108l-0.505-1.416l0.008,0.03c-1.155-2.211,0.418-4.327,1.583-6.146
		c0.502-0.866,0.195-1.972-0.643-2.479C60.573,148.341,59.459,148.619,58.959,149.484L58.959,149.484z"/>
	<path fill="#77317A" d="M88.401,146.289c4.632,4.63,11.406,5.906,17.599,7.062l1.378,0.043c0.334,0.048,0.675,0.025,0.981-0.106
		c0.922-0.371,1.354-1.437,0.981-2.359l-1.049-2.186c-2.125-2.271-4.253-4.535-6.777-6.383c-0.773-0.599-1.931-0.462-2.519,0.336
		c-0.618,0.812-0.462,1.934,0.338,2.522c1.897,1.484,3.632,3.158,5.29,4.882l1.374,2.201l1.298-2.461l-0.741-0.039
		c-5.443-1.088-11.588-2.006-15.667-6.124c-0.715-0.713-1.845-0.683-2.55,0.064C87.654,144.445,87.697,145.606,88.401,146.289
		L88.401,146.289z"/>
	<g>
		<circle fill="#F3BDA0" cx="44.348" cy="31.123" r="13.203"/>
		<path fill="#F3BDA0" d="M41.824,19.161c-7.651-0.26-11.78,7.276-11.539,14.095c0.164,4.345,2.433,8.223,6.275,10.429
			c5.727,3.229,12.3,1.714,17.359-1.795c3.138-2.14,4.485-6.115,4.412-9.828c-0.131-8.908-8.733-18.102-17.92-14.413
			c-0.903,0.275-1.426,1.23-1.152,2.136c0.301,0.892,1.259,1.415,2.164,1.142c2.724-1.126,5.94-0.881,8.303,1.037
			c5.185,4.133,7.092,11.69,2.714,17.05c-2.716,1.241-5.278,2.767-8.404,2.976c-5.283,0.327-10.071-3.248-10.308-8.532
			c-0.239-5.014,2.321-11.21,8.283-10.859c0.949-0.047,1.67-0.862,1.622-1.811C43.585,19.836,42.771,19.114,41.824,19.161
			L41.824,19.161z"/>
	</g>
	<polygon fill="#855A9E" points="422.759,33.186 393.529,98.374 442.918,99.937 434.32,33.949 	"/>
	<path fill="#3EBFCF" d="M422.867,37.733c-10.523,17.488-20.316,35.358-31.151,52.675l-0.244,0.603
		c-0.375,0.887,0.047,1.925,0.897,2.326l1.373,0.569c7.318,1.096,14.615,2.097,21.913,3.313c10.05,1.72,19.126,6.485,28.799,9.517
		l0.734,0.169c0.73,0.201,1.472-0.085,1.929-0.711l0.794-1.435c1.45-9.269-0.23-18.55-1.468-27.95
		c-1.387-10.635-6.324-19.891-9.422-30.052c-0.55-1.787-0.794-3.618-1.003-5.474c-0.124-0.99-1.029-1.674-2.019-1.547
		c-0.99,0.126-1.678,1.056-1.554,2.046c1.408,10.274,6.444,19.484,9.265,29.482c2.548,8.958,2.232,17.971,3.235,27.302
		c0.153,1.212-0.053,2.364-0.286,3.548l-0.516,2.02l1.933-0.715l-1.318-0.35c0.029,0.006,0.029,0.006,0.06,0.01
		c-8.672-2.788-16.869-6.936-25.891-8.835c-7.48-1.609-15.063-2.35-22.564-3.598l-2.472-0.58l0.931,2.328l0.597-1.34
		c10.745-16.724,20.065-34.269,30.422-51.235c0.546-0.829,0.35-1.954-0.444-2.525C424.569,36.743,423.442,36.94,422.867,37.733
		L422.867,37.733z"/>
	<path fill="#A18273" d="M442.354,58.836c10.631-1.326,19.323,5.998,29.444,7.637c1.631,0.273,3.286,0.188,4.954,0.013
		c0.99-0.099,1.729-0.989,1.636-1.977c-0.094-0.986-0.986-1.728-1.977-1.634c-1.275,0.205-2.594,0.278-3.869,0.061
		c-10.357-1.887-19.426-9.146-30.401-7.721c-0.985,0.064-1.754,0.924-1.685,1.909C440.486,58.13,441.343,58.899,442.354,58.836
		L442.354,58.836z"/>
	<path fill="#A18273" d="M411.263,51.844c-11.401,4.145-22.758,8.369-34.134,12.633c-0.936,0.35-1.396,1.386-1.076,2.329
		c0.352,0.937,1.388,1.397,2.335,1.077c11.433-4.399,22.933-8.536,34.407-12.761c0.918-0.436,1.275-1.511,0.874-2.405
		C413.231,51.802,412.156,51.443,411.263,51.844L411.263,51.844z"/>
	<path fill="#A18273" d="M477.428,61.993c-1.485,1.605-2.271,3.584-1.507,6.404l0.12,0.415c0.161,0.328,0.4,0.575,0.678,0.738
		l1.708,0.802c1.155,0.175,2.286-0.051,3.438-0.243l0.972-0.401c0.325-0.134,0.638-0.393,0.812-0.729l0.722-1.171
		c0.137-0.315,0.252-0.661,0.389-0.978l0.26-1.326c0.239-0.571,0.157-1.255-0.191-1.763l-0.794-1
		c-1.276-1.227-2.952-1.599-4.604-1.938c-0.969-0.236-1.941,0.378-2.178,1.347c-0.237,0.969,0.377,1.941,1.346,2.176
		c0.704,0.169,1.408,0.334,2.129,0.411l1.164,1.148l-0.349-1.116l-0.099,0.653c0,0,0,0-0.861,1.693c0,0,0,0,0.841-0.725
		c0,0,0,0-0.897,0.474l0,0c-1.885-0.371-1.885-0.371-1.885-0.371c0.648,0.734,0.648,0.734,0.648,0.734
		c-0.099-1.17-0.099-1.17,0-2.036c0.822-0.426,1.088-1.176,1.663-1.972c-0.196-1.122-1.02-1.703-1.851-2.253
		C477.978,61.164,477.428,61.993,477.428,61.993z"/>
	<path fill="#A18273" d="M378.909,64.417c-0.27-0.615-0.521-1.268-0.794-1.882L378,62.318c-0.344-0.288-0.78-0.432-1.233-0.386
		l-0.674,0.038c-2.896,0.301-5.053,2.519-6.277,5.011c-0.917,1.831,0.432,3.702,2.015,4.618c3.084,1.762,6.567,0.302,8.91-1.904
		c0.879-0.856,1.859-1.654,1.519-3.333c0.103-0.984-0.575-1.873-1.566-2.004c-0.994-0.134-1.881,0.546-2.014,1.537
		c-0.141,0.438-0.183,1.034-0.474,1.227c-1.408,0.837-2.472,2.453-4.817,1.196c0.695-1.222,1.434-2.389,3.012-2.895l0.555,0.115
		l-1.241-0.415l1.451-0.255c-0.584,0.141-1.16,0.312-1.746,0.452c0.27,0.986,1.242,1.557,2.198,1.293
		C378.602,66.345,379.173,65.373,378.909,64.417L378.909,64.417z"/>
	<path fill="#3EBFCF" d="M403.113,98.137c-1.02,9.853-2.701,19.633-4.105,29.426c-0.149,0.981,0.534,1.904,1.516,2.051
		c0.98,0.147,1.907-0.534,2.053-1.518c1.416-9.853,3.098-19.663,4.126-29.571c0.119-0.986-0.598-1.887-1.583-2.002
		C404.129,96.433,403.228,97.151,403.113,98.137L403.113,98.137z"/>
	<path fill="#3EBFCF" d="M427.214,105.49c-2.5,8.989-2.116,18.412-2.561,27.649c0.035,0.979,0.858,1.771,1.869,1.738
		c0.981-0.063,1.775-0.888,1.742-1.896c0.511-8.892,0.046-17.964,2.469-26.63c0.24-0.969-0.345-1.937-1.313-2.173
		C428.452,103.941,427.454,104.52,427.214,105.49L427.214,105.49z"/>
	<g>
		<path fill="#D7306F" d="M392.393,126.237c-0.272,1.844-0.551,3.687-0.827,5.53c-0.145,0.981,0.537,1.907,1.519,2.053
			c0.981,0.148,1.903-0.535,2.049-1.515c0.277-1.847,0.556-3.69,0.831-5.533c0.15-1.012-0.536-1.906-1.519-2.051
			C393.464,124.573,392.547,125.224,392.393,126.237L392.393,126.237z"/>
		<path fill="#D7306F" d="M393.175,128.148c0.827,1.156,1.562,2.36,2.423,3.495c0.577,0.814,1.703,1.016,2.487,0.433
			c0.819-0.577,1.017-1.703,0.439-2.52c-0.772-1.147-1.638-2.251-2.376-3.427c-0.546-0.811-1.665-1.04-2.484-0.461
			C392.825,126.211,392.624,127.337,393.175,128.148L393.175,128.148z"/>
		<path fill="#D7306F" d="M394.625,135.509c1.506-0.533,2.697-1.57,3.912-2.576c0.816-0.578,1.013-1.701,0.406-2.523
			c-0.581-0.784-1.707-0.985-2.493-0.4c-1.135,0.861-2.137,1.898-3.57,2.32c-0.863,0.479-1.178,1.589-0.701,2.449
			C392.655,135.671,393.729,135.983,394.625,135.509L394.625,135.509z"/>
		<path fill="#D7306F" d="M396.852,132.408c0.471,1.531,1.839,2.526,2.378,4.007c0.447,0.887,1.548,1.233,2.44,0.76
			c0.863-0.479,1.208-1.554,0.734-2.443c-0.482-1.471-1.856-2.439-2.301-3.934c-0.442-0.886-1.548-1.236-2.436-0.788
			C396.78,130.453,396.409,131.52,396.852,132.408L396.852,132.408z"/>
		<path fill="#D7306F" d="M399.984,133c2.051-0.879,4.268-1.062,6.398-1.688c0.965-0.16,1.651-1.09,1.493-2.055
			c-0.154-0.999-1.093-1.655-2.087-1.499c-2.406,0.641-4.891,0.971-7.19,1.931c-0.909,0.382-1.345,1.441-0.96,2.351
			C398.017,132.949,399.077,133.38,399.984,133L399.984,133z"/>
		<path fill="#D7306F" d="M403.916,129.698c-0.828,2.095-2.207,3.985-2.693,6.22c-0.299,0.962,0.252,1.956,1.183,2.247
			c0.964,0.267,1.983-0.249,2.249-1.213c0.524-2.078,1.787-3.808,2.538-5.79c0.41-0.913,0.025-1.973-0.888-2.384
			C405.388,128.395,404.33,128.784,403.916,129.698L403.916,129.698z"/>
	</g>
	<g>
		<path fill="#D7306F" d="M419.055,133.576c-0.947,2.477-1.373,5.116-1.226,7.753c0.005,1.004,0.83,1.798,1.832,1.793
			c0.973-0.003,1.797-0.823,1.762-1.83c-0.213-2.224,0.238-4.433,1.038-6.503c0.324-0.957-0.162-1.973-1.08-2.321
			C420.425,132.142,419.409,132.628,419.055,133.576L419.055,133.576z"/>
		<path fill="#D7306F" d="M420.293,136.469c0.734,0.776,1.396,1.639,1.987,2.548c0.577,0.845,1.699,1.046,2.514,0.495
			c0.814-0.576,1.046-1.695,0.466-2.513c-0.559-1.119-1.541-1.874-2.24-2.891c-0.649-0.763-1.759-0.84-2.526-0.195
			C419.729,134.558,419.649,135.701,420.293,136.469L420.293,136.469z"/>
		<path fill="#D7306F" d="M423.353,144.253c0.955-1.498,1.826-3.039,2.945-4.422c0.635-0.789,0.528-1.898-0.229-2.561
			c-0.755-0.626-1.895-0.524-2.556,0.228c-1.254,1.484-2.12,3.209-3.213,4.809c-0.521,0.832-0.29,1.934,0.538,2.482
			C421.672,145.341,422.797,145.115,423.353,144.253L423.353,144.253z"/>
		<path fill="#D7306F" d="M427.508,140.071c1.312-1.05,2.719-1.932,4.11-2.879c0.814-0.577,1.046-1.698,0.465-2.514
			c-0.545-0.812-1.664-1.04-2.51-0.496c-1.399,1.035-2.918,1.839-4.245,2.979c-0.789,0.614-0.96,1.74-0.351,2.534
			C425.554,140.511,426.689,140.652,427.508,140.071L427.508,140.071z"/>
		<path fill="#D7306F" d="M429.271,136.627c-0.457,2.423-0.162,4.933-0.619,7.355c-0.115,0.988,0.603,1.888,1.588,2.003
			c0.986,0.12,1.878-0.567,1.997-1.555c0.449-2.397,0.209-4.863,0.603-7.271c0.148-1.012-0.539-1.904-1.52-2.05
			C430.338,134.963,429.42,135.616,429.271,136.627L429.271,136.627z"/>
		<path fill="#D7306F" d="M425.077,141.47c0.909,1.446,2.099,2.629,3.324,3.785c0.752,0.688,1.882,0.645,2.564-0.071
			c0.688-0.718,0.674-1.849-0.072-2.536c-1.062-1.041-2.198-1.97-2.911-3.323c-0.575-0.815-1.707-0.986-2.526-0.38
			C424.672,139.524,424.5,140.655,425.077,141.47L425.077,141.47z"/>
	</g>
	<path fill="#3EBFCF" d="M390.768,136.085c-3.137,1.659-6.025,4.48-5.983,8.257l-0.047,0.542c-0.09,0.592,0.128,1.174,0.555,1.57
		l1.456,1.041c5.123,1.102,10.834-0.295,15.328-2.872c0.811-0.55,1.07-1.663,0.524-2.504c-0.541-0.846-1.659-1.071-2.506-0.53
		c-3.4,2.015-7.411,2.812-11.26,2.724l-1.111-0.504l0.589,1.549l0.192-1.494l-0.003,0.031c-0.022-2.497,2.342-3.661,4.207-4.75
		c0.84-0.543,1.071-1.665,0.559-2.5C392.726,135.803,391.609,135.542,390.768,136.085L390.768,136.085z"/>
	<path fill="#3EBFCF" d="M418.432,146.647c2.019,6.234,7.464,10.454,12.452,14.305l1.208,0.665c0.277,0.196,0.589,0.333,0.922,0.354
		c0.99,0.085,1.859-0.666,1.95-1.655l0.061-2.424c-0.863-2.987-1.721-5.975-3.129-8.771c-0.415-0.883-1.507-1.289-2.395-0.846
		c-0.917,0.441-1.293,1.512-0.846,2.398c1.009,2.19,1.793,4.465,2.484,6.755l0.218,2.587l2.278-1.604l-0.644-0.367
		c-4.349-3.453-9.4-7.068-11.159-12.59c-0.312-0.958-1.332-1.446-2.296-1.104C418.607,144.667,418.116,145.72,418.432,146.647
		L418.432,146.647z"/>
	<g>
		<path fill="#A18273" d="M429.711,37.118c7.207,1.081,13.933-3.887,15.012-11.099c1.08-7.212-3.892-13.933-11.099-15.012
			c-7.213-1.081-13.934,3.887-15.013,11.099C417.528,29.318,422.5,36.04,429.711,37.118z"/>
		<path fill="#A18273" d="M434.866,12.266c-6.695-3.716-13.8,1.109-16.693,7.292c-1.831,3.94-1.579,8.427,0.841,12.143
			c3.623,5.482,10.165,7.125,16.267,6.307c3.768-0.474,6.78-3.404,8.406-6.742c3.944-7.988,0.471-20.091-9.392-20.992
			c-0.927-0.166-1.827,0.448-1.997,1.379c-0.138,0.931,0.477,1.831,1.403,2.001c2.94,0.237,5.692,1.92,6.923,4.702
			c2.734,6.043,0.989,13.638-5.349,16.416c-2.982-0.131-5.961,0.06-8.836-1.182c-4.853-2.112-7.485-7.477-5.293-12.288
			c2.074-4.572,7.174-8.921,12.324-5.896c0.867,0.391,1.877-0.006,2.267-0.872C436.125,13.667,435.728,12.655,434.866,12.266
			L434.866,12.266z"/>
	</g>
	<path fill="#F7BB76" d="M155.154,71.065c6.424-3.99,14.163-1.861,21.14-3.803c1.126-0.307,2.164-0.849,3.181-1.454
		c0.605-0.355,0.817-1.144,0.464-1.751c-0.352-0.604-1.146-0.818-1.75-0.464c-0.759,0.507-1.581,0.947-2.463,1.182
		c-7.204,1.85-15.165-0.129-21.785,4.032c-0.611,0.333-0.85,1.108-0.517,1.72C153.745,71.164,154.522,71.402,155.154,71.065
		L155.154,71.065z"/>
	<path fill="#F7BB76" d="M136.092,71.527c-8.509-1.004-17.013-1.939-25.542-2.86c-0.702-0.077-1.321,0.434-1.418,1.131
		c-0.078,0.7,0.432,1.323,1.13,1.419c8.609,0.852,17.176,1.894,25.757,2.867c0.717,0.016,1.285-0.552,1.314-1.241
		C137.349,72.126,136.784,71.56,136.092,71.527L136.092,71.527z"/>
	<path fill="#F7BB76" d="M137.083,105.873c1.405,6.854,2.355,13.797,3.49,20.691c0.109,0.692,0.764,1.166,1.457,1.06
		c0.694-0.11,1.17-0.769,1.061-1.46c-1.145-6.934-2.095-13.899-3.51-20.794c-0.13-0.687-0.804-1.14-1.491-1.01
		C137.402,104.512,136.95,105.186,137.083,105.873L137.083,105.873z"/>
	<path fill="#F7BB76" d="M154.876,105.703c0.227,6.584,2.488,12.849,4.152,19.163c0.232,0.649,0.956,1.009,1.629,0.773
		c0.645-0.251,1.006-0.978,0.769-1.647c-1.545-6.099-3.788-12.105-3.999-18.46c-0.047-0.7-0.645-1.229-1.349-1.182
		C155.38,104.397,154.83,104.999,154.876,105.703L154.876,105.703z"/>
	<polygon fill="#009E53" points="133.467,97.308 129.673,114.079 147.305,113.003 150.305,103.847 156.473,112.241 168.632,111.242 
		159.854,94.505 	"/>
	<polygon fill="#00A8DE" points="123.471,62.43 125.105,81.434 130.651,79.522 127.318,96.09 170.098,91.851 159.248,73.984 
		164.716,60.047 153.69,55.58 130.643,59.919 	"/>
	<g>
		<path fill="#F7BB76" d="M142.71,59.018c5.086-0.806,8.555-5.582,7.749-10.668c-0.804-5.082-5.581-8.557-10.665-7.75
			c-5.084,0.807-8.554,5.582-7.751,10.669C132.85,56.355,137.624,59.825,142.71,59.018z"/>
		<path fill="#F7BB76" d="M140.179,40.587c-2.378,0.415-4.923,0.392-6.942,1.856c-4.353,3.154-2.885,9.597-0.032,13.278
			c2.871,3.676,8.434,3.632,12.509,1.803c2.103-0.935,4.356-1.895,5.171-4.217c1.392-3.963-1.218-7.819-4.036-10.535
			c-1.79-1.754-4.196-2.496-6.657-2.478c-0.637,0.023-1.114,0.565-1.092,1.201c0.025,0.637,0.567,1.132,1.204,1.093
			c4.873,0.021,8.74,4.958,8.627,9.631c-2.781,4.13-9.664,5.881-13.537,2.376c-2.443-2.191-3.169-5.781-2.084-8.747
			c1.024-2.842,4.63-2.5,7.229-2.989c0.625-0.101,1.056-0.692,0.955-1.315C141.396,40.92,140.803,40.49,140.179,40.587
			L140.179,40.587z"/>
	</g>
	<path fill="#F7BB76" d="M180.949,60.357c-0.482,1.47-0.398,2.971,0.923,4.554l0.2,0.23c0.204,0.164,0.428,0.252,0.656,0.273
		l1.33,0.013c0.796-0.23,1.454-0.71,2.136-1.173l0.504-0.546c0.17-0.182,0.294-0.44,0.303-0.709l0.12-0.96
		c-0.005-0.242-0.034-0.499-0.039-0.741l-0.227-0.931c-0.016-0.437-0.268-0.849-0.644-1.072l-0.803-0.41
		c-1.182-0.409-2.368-0.15-3.526,0.119c-0.692,0.134-1.134,0.816-1.001,1.508c0.137,0.691,0.817,1.135,1.506,0.999
		c0.504-0.101,1.003-0.202,1.487-0.366l1.085,0.391l-0.552-0.61l0.13,0.448c0,0,0,0-0.052,1.34c0,0,0,0,0.323-0.712
		c0,0,0,0-0.434,0.566l0,0c-1.322,0.32-1.322,0.32-1.322,0.32c0.635,0.28,0.635,0.28,0.635,0.28
		c-0.409-0.725-0.409-0.725-0.601-1.308c0.403-0.516,0.351-1.077,0.486-1.754c-0.46-0.663-1.161-0.793-1.857-0.901
		C181.056,59.667,180.949,60.357,180.949,60.357z"/>
	<path fill="#F7BB76" d="M111.692,69.197c0.023-0.475,0.073-0.966,0.096-1.439l-0.002-0.174c-0.127-0.296-0.358-0.521-0.659-0.637
		l-0.437-0.188c-1.922-0.733-3.988-0.013-5.549,1.169c-1.161,0.863-0.905,2.472-0.196,3.552c1.387,2.089,4.047,2.273,6.226,1.63
		c0.825-0.268,1.697-0.457,2.014-1.628c0.377-0.586,0.229-1.36-0.352-1.759c-0.583-0.399-1.36-0.253-1.756,0.33
		c-0.229,0.231-0.444,0.596-0.691,0.625c-1.153,0.08-2.337,0.765-3.416-0.773c0.825-0.551,1.662-1.053,2.818-0.871l0.314,0.247
		l-0.655-0.653l0.999,0.299c-0.414-0.098-0.833-0.173-1.246-0.27c-0.141,0.71,0.291,1.375,0.978,1.517
		C110.885,70.314,111.553,69.883,111.692,69.197L111.692,69.197z"/>
	<g>
		<path fill="#0060A6" d="M130.728,62.097c-0.625,0.529-1.227,1.075-1.877,1.587c-2.463,1.96-5.486,2.826-7.602,5.074
			c-0.504,0.488-0.48,1.301,0.006,1.805c0.506,0.481,1.323,0.481,1.802-0.028c2.82-2.551,6.64-3.694,9.314-6.483
			c0.551-0.453,0.619-1.259,0.146-1.807C132.064,61.715,131.26,61.647,130.728,62.097L130.728,62.097z"/>
		<path fill="#0060A6" d="M122.867,71.79c2.284,2.326,2.93,5.599,4.485,8.364c0.333,0.615,1.084,0.859,1.72,0.545
			c0.64-0.316,0.884-1.087,0.569-1.7c-1.652-2.988-2.404-6.502-4.943-8.958c-0.491-0.525-1.288-0.529-1.792-0.038
			C122.4,70.467,122.381,71.287,122.867,71.79L122.867,71.79z"/>
		<path fill="#0060A6" d="M129.58,80.64c1.464-0.661,2.808-1.542,4.184-2.36c0.587-0.374,0.783-1.158,0.413-1.745
			c-0.354-0.609-1.14-0.806-1.746-0.432c-1.34,0.77-2.594,1.679-4.027,2.271c-0.612,0.334-0.855,1.104-0.543,1.721
			C128.198,80.729,128.966,80.973,129.58,80.64L129.58,80.64z"/>
		<path fill="#0060A6" d="M130.534,78.788c-1.376,5.702-1.883,11.587-3.215,17.303c-0.127,0.688,0.362,1.34,1.05,1.469
			c0.683,0.105,1.339-0.365,1.463-1.069c1.322-5.629,1.81-11.381,3.158-16.994c0.193-0.673-0.199-1.385-0.874-1.58
			C131.44,77.721,130.728,78.114,130.534,78.788L130.534,78.788z"/>
		<path fill="#0060A6" d="M129.832,97.304c11.884-3.559,24.392-2.25,36.532-3.913c0.7-0.069,1.22-0.713,1.152-1.408
			c-0.088-0.695-0.703-1.201-1.404-1.135c-12.336,1.655-25.048,0.401-37.095,4.028c-0.67,0.235-1.028,0.955-0.793,1.629
			C128.437,97.181,129.158,97.518,129.832,97.304L129.832,97.304z"/>
		<path fill="#0060A6" d="M158.312,75.53c1.771,6.169,5.463,11.69,9.128,16.914c0.487,0.503,1.283,0.508,1.788,0.019
			c0.503-0.488,0.525-1.307,0.034-1.811c-3.296-4.938-6.889-9.981-8.471-15.751c-0.17-0.682-0.859-1.088-1.543-0.917
			C158.568,74.159,158.139,74.849,158.312,75.53L158.312,75.53z"/>
		<path fill="#0060A6" d="M160.894,76.369c0.567-0.09,1.135-0.179,1.7-0.269c0.691-0.112,1.167-0.769,1.061-1.46
			c-0.111-0.69-0.768-1.168-1.459-1.057c-0.567,0.089-1.134,0.179-1.699,0.267c-0.691,0.113-1.168,0.765-1.058,1.461
			C159.547,76.002,160.202,76.477,160.894,76.369L160.894,76.369z"/>
		<path fill="#0060A6" d="M164.201,73.63c0.406-3.827,1.369-7.507,2.197-11.25c0.26-0.663-0.094-1.404-0.755-1.643
			c-0.661-0.24-1.379,0.111-1.621,0.751c-0.97,3.938-1.891,7.891-2.368,11.923c-0.064,0.696,0.463,1.302,1.164,1.383
			C163.514,74.859,164.141,74.329,164.201,73.63L164.201,73.63z"/>
		<path fill="#0060A6" d="M164.716,60.047c-4.194-0.819-8.575-1.2-12.306-3.448c-0.648-0.304-1.405-0.036-1.712,0.594
			c-0.31,0.631-0.038,1.382,0.59,1.691c3.96,2.319,8.576,2.835,13.011,3.68c0.682,0.107,1.339-0.362,1.468-1.049
			C165.869,60.81,165.4,60.153,164.716,60.047L164.716,60.047z"/>
	</g>
	<g>
		<path fill="#0060A6" d="M130.643,99.561c-1.163,4.743-1.417,9.664-1.917,14.518c-0.062,0.696,0.465,1.302,1.183,1.36
			c0.695,0.039,1.299-0.485,1.361-1.185c0.614-4.678,0.614-9.428,1.843-14.031c0.171-0.669-0.222-1.382-0.893-1.556
			C131.526,98.5,130.835,98.887,130.643,99.561L130.643,99.561z"/>
		<path fill="#0060A6" d="M131.129,115.137c6.243-1.032,12.573-1.392,18.729-2.966c0.692-0.133,1.144-0.807,1.012-1.494
			c-0.151-0.687-0.824-1.139-1.515-1.007c-6.116,1.571-12.426,1.904-18.623,2.95c-0.691,0.109-1.169,0.767-1.059,1.458
			C129.783,114.77,130.438,115.246,131.129,115.137L131.129,115.137z"/>
		<path fill="#0060A6" d="M151.093,109.783c-0.065-1.517,0.122-3.03,0.315-4.521c0.083-0.702-0.403-1.335-1.104-1.414
			c-0.702-0.087-1.334,0.401-1.415,1.104c-0.219,1.604-0.393,3.222-0.351,4.849c0,0.688,0.585,1.264,1.293,1.259
			C150.521,111.056,151.099,110.49,151.093,109.783L151.093,109.783z"/>
		<path fill="#0060A6" d="M149.209,105.757c0.751,1.624,1.839,3.065,2.633,4.683c0.315,0.636,1.085,0.878,1.702,0.566
			c0.638-0.316,0.881-1.083,0.566-1.724c-0.813-1.613-1.863-3.082-2.661-4.716c-0.338-0.636-1.103-0.856-1.715-0.524
			C149.098,104.379,148.877,105.148,149.209,105.757L149.209,105.757z"/>
		<path fill="#0060A6" d="M154.385,111.151c4.758,0.044,9.489,0.457,14.247,0.091c0.706-0.025,1.254-0.632,1.208-1.332
			c-0.026-0.703-0.63-1.254-1.33-1.207c-4.72,0.337-9.426-0.057-14.139-0.086c-0.71,0.006-1.267,0.567-1.262,1.276
			S153.677,111.158,154.385,111.151L154.385,111.151z"/>
		<path fill="#0060A6" d="M168.771,107.779c-1.973-5-3.867-10.03-5.493-15.147c-0.216-0.674-0.942-1.054-1.597-0.845
			c-0.676,0.216-1.054,0.942-0.842,1.597c1.66,5.198,3.546,10.318,5.596,15.387c0.275,0.645,1.033,0.957,1.68,0.683
			C168.757,109.178,169.066,108.42,168.771,107.779L168.771,107.779z"/>
	</g>
	<g>
		<path fill="#0060A6" d="M136.835,134.054c-1.759,1.784-3.103,4.298-2.271,6.832l0.081,0.375c0.064,0.419,0.335,0.765,0.708,0.939
			l1.199,0.393c3.687-0.347,7.237-2.501,9.712-5.193c0.431-0.541,0.367-1.348-0.177-1.801c-0.544-0.447-1.348-0.368-1.798,0.179
			c-1.865,2.078-4.395,3.47-7.007,4.225l-0.853-0.098l0.724,0.917l-0.188-1.045l0.004,0.021c-0.546-1.678,0.798-2.966,1.824-4.098
			c0.451-0.542,0.365-1.349-0.156-1.8C138.093,133.448,137.287,133.513,136.835,134.054L136.835,134.054z"/>
		<path fill="#0060A6" d="M145.629,129.996c1.553,0.7,0.586,3.153,0.51,4.566c-0.22,0.657,0.135,1.396,0.812,1.609
			c0.658,0.22,1.379-0.129,1.613-0.812c0.647-2.705,1.204-7.736-2.709-7.892c-0.721-0.059-1.327,0.445-1.387,1.167
			C144.409,129.33,144.933,129.936,145.629,129.996L145.629,129.996z"/>
		<path fill="#0060A6" d="M156.008,126.698c-2.737,1.981-3.051,6.374-0.66,8.726c0.413,0.56,1.206,0.692,1.782,0.257
			c0.555-0.433,0.666-1.226,0.256-1.784c-1.489-1.396-1.531-4.101,0.303-5.27c0.531-0.452,0.576-1.255,0.123-1.805
			C157.364,126.29,156.562,126.245,156.008,126.698L156.008,126.698z"/>
		<path fill="#0060A6" d="M159.601,137.029c3.849,0.272,8.086,2.999,11.773,0.887l0.544-0.494c0.185-0.18,0.325-0.393,0.369-0.661
			l0.26-1.2c0.125-4.365-3.653-8.538-7.86-9.311c-0.687-0.128-1.347,0.319-1.493,1.011c-0.128,0.686,0.32,1.346,1.009,1.494
			c2.81,0.371,4.977,3.06,5.854,5.607l-0.262,1.869l0.367-0.657l-0.681,0.58c0.062-0.013,0.126-0.022,0.189-0.029
			c-3.302,0.199-6.357-1.187-9.562-1.584c-0.687-0.148-1.348,0.299-1.498,0.99C158.463,136.222,158.912,136.879,159.601,137.029
			L159.601,137.029z"/>
	</g>
	<path fill="#009E53" d="M138.521,128.414c2.141-0.339,4.473-0.535,6.023-2.415c0.48-0.507,0.483-1.303-0.025-1.802
		c-0.508-0.478-1.323-0.478-1.802,0.025c-1.194,1.288-2.979,1.42-4.594,1.675c-0.692,0.108-1.17,0.767-1.059,1.458
		C137.174,128.045,137.829,128.523,138.521,128.414L138.521,128.414z"/>
	<path fill="#009E53" d="M138.823,131.12c1.881-0.471,3.87-0.807,5.246-2.294c0.504-0.49,0.527-1.287,0.037-1.812
		c-0.49-0.503-1.307-0.503-1.809-0.015c-1.105,0.885-2.498,1.342-3.875,1.603c-0.691,0.109-1.17,0.768-1.059,1.458
		C137.475,130.75,138.129,131.229,138.823,131.12L138.823,131.12z"/>
	<path fill="#009E53" d="M156.136,125.195c2.249,0.611,4.67,0.162,6.822-0.632c0.65-0.25,0.982-0.991,0.731-1.639
		c-0.257-0.669-0.974-0.984-1.645-0.75c-1.688,0.609-3.598,1.041-5.38,0.529c-0.689-0.149-1.369,0.304-1.521,0.973
		C155.015,124.363,155.446,125.046,156.136,125.195L156.136,125.195z"/>
	<path fill="#F7BB76" d="M340.759,78.519c6.87-3.165,14.287-0.1,21.452-1.165c1.156-0.163,2.253-0.575,3.336-1.051
		c0.645-0.275,0.952-1.035,0.676-1.68c-0.274-0.645-1.033-0.951-1.678-0.674c-0.815,0.409-1.687,0.742-2.591,0.866
		c-7.377,0.947-15.033-1.995-22.113,1.313c-0.648,0.257-0.98,0.999-0.725,1.644C339.351,78.447,340.094,78.78,340.759,78.519
		L340.759,78.519z"/>
	<path fill="#F7BB76" d="M322.269,73.885c-7.938-3.235-15.883-6.405-23.858-9.568c-0.652-0.26-1.387,0.065-1.668,0.711
		c-0.261,0.656,0.068,1.391,0.713,1.672c8.069,3.115,16.049,6.4,24.059,9.632c0.687,0.203,1.387-0.19,1.6-0.848
		C323.32,74.796,322.927,74.099,322.269,73.885L322.269,73.885z"/>
	<path fill="#F7BB76" d="M314.063,107.251c-0.468,6.979-1.407,13.924-2.15,20.871c-0.082,0.696,0.426,1.331,1.122,1.409
		c0.695,0.08,1.331-0.426,1.408-1.123c0.752-6.988,1.69-13.955,2.164-20.975c0.06-0.698-0.471-1.312-1.17-1.374
		C314.738,106.027,314.119,106.554,314.063,107.251L314.063,107.251z"/>
	<path fill="#F7BB76" d="M331.26,111.83c-1.536,6.408-1.028,13.048-1.105,19.578c0.048,0.689,0.648,1.23,1.361,1.179
		c0.691-0.068,1.23-0.671,1.182-1.383c0.137-6.288-0.422-12.677,1.068-18.855c0.144-0.689-0.296-1.358-0.982-1.5
		C332.093,110.706,331.401,111.138,331.26,111.83L331.26,111.83z"/>
	<polygon fill="#D0392B" points="312.864,98.035 304.736,113.183 322.013,116.852 327.348,108.823 331.055,118.559 343.042,120.835 
		339.043,102.37 	"/>
	<polygon fill="#ED849B" points="312.528,61.751 309.037,80.504 314.891,80.141 307.262,95.22 349.622,102.541 343.93,82.429 
		352.917,70.451 343.482,63.207 320.11,61.242 	"/>
	<g>
		<circle fill="#F7BB76" cx="333.032" cy="54.329" r="9.324"/>
		<path fill="#F7BB76" d="M334.456,45.156c-2.401-0.232-4.852-0.937-7.186-0.062c-5.034,1.878-5.338,8.479-3.57,12.789
			c1.787,4.31,7.16,5.747,11.575,5.069c2.275-0.337,4.704-0.661,6.107-2.683c2.398-3.449,0.912-7.861-1.08-11.23
			c-1.259-2.168-3.379-3.528-5.756-4.163c-0.619-0.147-1.225,0.247-1.374,0.866c-0.146,0.62,0.248,1.242,0.87,1.373
			c4.69,1.319,7.101,7.11,5.744,11.586c-3.781,3.236-10.883,3.086-13.677-1.317c-1.771-2.767-1.51-6.422,0.324-8.991
			c1.741-2.463,5.125-1.175,7.763-0.951c0.626,0.072,1.203-0.385,1.271-1.014C335.541,45.797,335.083,45.225,334.456,45.156
			L334.456,45.156z"/>
	</g>
	<path fill="#F7BB76" d="M367.681,71.078c-0.656,1.397-0.764,2.897,0.355,4.635l0.17,0.25c0.179,0.185,0.393,0.304,0.614,0.354
		l1.318,0.175c0.819-0.13,1.532-0.525,2.266-0.903l0.568-0.478c0.191-0.157,0.346-0.396,0.39-0.664l0.233-0.94
		c0.025-0.241,0.029-0.499,0.055-0.738l-0.11-0.952c0.038-0.435-0.162-0.879-0.508-1.143l-0.746-0.504
		c-1.119-0.553-2.33-0.444-3.513-0.32c-0.704,0.05-1.225,0.67-1.178,1.374c0.048,0.701,0.67,1.225,1.37,1.178
		c0.512-0.038,1.02-0.078,1.524-0.179l1.027,0.521l-0.474-0.675l0.072,0.461c0,0,0,0-0.218,1.322c0,0,0,0,0.411-0.664
		c0,0,0,0-0.5,0.507l0,0c-1.353,0.154-1.353,0.154-1.353,0.154c0.597,0.356,0.597,0.356,0.597,0.356
		c-0.315-0.766-0.315-0.766-0.436-1.373c0.461-0.46,0.482-1.021,0.695-1.682c-0.37-0.712-1.049-0.926-1.729-1.119
		C367.874,70.404,367.681,71.078,367.681,71.078z"/>
	<path fill="#F7BB76" d="M299.371,65.133c0.149-0.452,0.328-0.913,0.479-1.362l0.042-0.17c-0.047-0.315-0.205-0.597-0.466-0.784
		l-0.37-0.3c-1.655-1.218-3.837-1.076-5.658-0.354c-1.35,0.525-1.532,2.143-1.137,3.372c0.777,2.385,3.296,3.272,5.565,3.23
		c0.866-0.038,1.759,0.012,2.377-1.029c0.521-0.464,0.586-1.252,0.128-1.791c-0.457-0.538-1.241-0.607-1.779-0.15
		c-0.281,0.161-0.589,0.458-0.832,0.418c-1.135-0.23-2.458,0.115-3.09-1.658c0.943-0.309,1.887-0.569,2.949-0.084l0.238,0.32
		l-0.457-0.806l0.885,0.556c-0.375-0.206-0.756-0.39-1.132-0.591c-0.323,0.645-0.086,1.401,0.538,1.719
		C298.295,65.996,299.055,65.757,299.371,65.133L299.371,65.133z"/>
	<g>
		<path fill="#F6AF26" d="M319.611,63.367c-0.742,0.342-1.468,0.708-2.232,1.028c-2.896,1.233-6.037,1.259-8.68,2.863
			c-0.614,0.337-0.81,1.127-0.474,1.741c0.358,0.599,1.148,0.815,1.742,0.455c3.4-1.709,7.387-1.794,10.706-3.767
			c0.653-0.29,0.931-1.05,0.623-1.703C321.002,63.354,320.242,63.075,319.611,63.367L319.611,63.367z"/>
		<path fill="#F6AF26" d="M309.45,70.613c1.579,2.851,1.332,6.179,2.095,9.256c0.159,0.683,0.812,1.117,1.512,0.985
			c0.699-0.137,1.14-0.812,1.002-1.489c-0.797-3.319-0.583-6.907-2.376-9.952c-0.333-0.636-1.101-0.85-1.715-0.517
			C309.352,69.212,309.117,69.999,309.45,70.613L309.45,70.613z"/>
		<path fill="#F6AF26" d="M313.559,80.931c1.592-0.249,3.12-0.738,4.664-1.161c0.667-0.201,1.063-0.904,0.862-1.568
			c-0.179-0.682-0.883-1.081-1.566-0.881c-1.497,0.384-2.948,0.926-4.488,1.113c-0.68,0.158-1.118,0.837-0.981,1.513
			C312.203,80.65,312.881,81.087,313.559,80.931L313.559,80.931z"/>
		<path fill="#F6AF26" d="M314.976,79.403c-2.851,5.125-4.907,10.664-7.714,15.817c-0.304,0.629-0.005,1.389,0.622,1.693
			c0.627,0.284,1.387,0.007,1.693-0.642c2.779-5.069,4.779-10.485,7.576-15.533c0.365-0.598,0.178-1.39-0.424-1.759
			C316.133,78.614,315.338,78.803,314.976,79.403L314.976,79.403z"/>
		<path fill="#F6AF26" d="M309.361,97.062c12.404-0.263,24.105,4.333,36.254,5.964c0.692,0.12,1.366-0.358,1.486-1.049
			c0.102-0.692-0.359-1.345-1.051-1.467c-12.332-1.694-24.25-6.292-36.826-6.009c-0.708,0.047-1.25,0.647-1.2,1.359
			C308.051,96.571,308.652,97.087,309.361,97.062L309.361,97.062z"/>
		<path fill="#F6AF26" d="M342.615,83.667c0.065,6.418,2.147,12.725,4.29,18.737c0.337,0.614,1.101,0.83,1.715,0.494
			s0.854-1.122,0.521-1.735c-1.864-5.642-3.98-11.458-3.968-17.441c0.017-0.703-0.538-1.28-1.242-1.292
			C343.226,82.412,342.628,82.961,342.615,83.667L342.615,83.667z"/>
		<path fill="#F6AF26" d="M344.881,85.164c0.571,0.065,1.14,0.128,1.711,0.191c0.696,0.082,1.328-0.426,1.408-1.122
			c0.078-0.694-0.426-1.33-1.122-1.407c-0.571-0.063-1.139-0.128-1.711-0.194c-0.695-0.079-1.332,0.426-1.408,1.124
			C343.678,84.452,344.186,85.083,344.881,85.164L344.881,85.164z"/>
		<path fill="#F6AF26" d="M348.798,83.406c1.408-3.58,3.32-6.869,5.116-10.254c0.427-0.572,0.282-1.379-0.289-1.786
			c-0.572-0.408-1.361-0.263-1.764,0.292c-1.983,3.539-3.925,7.097-5.462,10.855c-0.246,0.658,0.1,1.379,0.752,1.648
			C347.808,84.404,348.555,84.063,348.798,83.406L348.798,83.406z"/>
		<path fill="#F6AF26" d="M352.917,70.451c-3.824-1.908-7.946-3.441-10.942-6.603c-0.546-0.468-1.344-0.408-1.809,0.115
			c-0.466,0.525-0.405,1.323,0.119,1.788c3.196,3.29,7.51,5.019,11.556,7.016c0.632,0.284,1.392,0.01,1.694-0.624
			C353.826,71.497,353.548,70.737,352.917,70.451L352.917,70.451z"/>
	</g>
	<g>
		<path fill="#0060A6" d="M309.541,99.451c-2.386,4.262-3.939,8.936-5.715,13.479c-0.247,0.659,0.099,1.379,0.777,1.627
			c0.656,0.226,1.379-0.12,1.626-0.776c1.839-4.345,3.106-8.923,5.514-13.033c0.345-0.601,0.157-1.391-0.445-1.736
			C310.675,98.661,309.906,98.853,309.541,99.451L309.541,99.451z"/>
		<path fill="#0060A6" d="M305.857,114.593c6.294,0.669,12.49,2.013,18.845,2.136c0.694,0.056,1.313-0.472,1.369-1.169
			c0.039-0.703-0.489-1.32-1.19-1.374c-6.311-0.119-12.481-1.481-18.732-2.126c-0.701-0.077-1.332,0.426-1.412,1.123
			C304.658,113.877,305.163,114.514,305.857,114.593L305.857,114.593z"/>
		<path fill="#0060A6" d="M326.529,114.756c0.336-1.479,0.925-2.888,1.51-4.274c0.265-0.653-0.038-1.394-0.69-1.659
			c-0.653-0.269-1.392,0.033-1.661,0.687c-0.636,1.488-1.237,3.003-1.63,4.583c-0.18,0.661,0.231,1.369,0.913,1.555
			C325.636,115.829,326.34,115.441,326.529,114.756L326.529,114.756z"/>
		<path fill="#0060A6" d="M325.782,110.374c0.294,1.766,0.96,3.445,1.293,5.212c0.132,0.699,0.81,1.139,1.488,1.003
			c0.7-0.132,1.14-0.812,1.004-1.511c-0.355-1.771-0.973-3.466-1.306-5.254c-0.153-0.704-0.833-1.121-1.516-0.964
			C326.046,109.017,325.627,109.697,325.782,110.374L325.782,110.374z"/>
		<path fill="#0060A6" d="M329.331,116.956c4.579,1.308,9.026,2.965,13.711,3.88c0.688,0.164,1.375-0.27,1.521-0.961
			c0.161-0.686-0.273-1.375-0.961-1.52c-4.638-0.931-9.072-2.565-13.604-3.85c-0.687-0.184-1.369,0.21-1.557,0.894
			C328.255,116.084,328.649,116.77,329.331,116.956L329.331,116.956z"/>
		<path fill="#0060A6" d="M344.101,117.536c-0.572-5.342-1.055-10.698-1.26-16.062c-0.025-0.709-0.627-1.269-1.313-1.237
			c-0.709,0.025-1.268,0.622-1.238,1.309c0.213,5.454,0.67,10.891,1.293,16.326c0.091,0.692,0.739,1.196,1.434,1.102
			C343.712,118.882,344.212,118.233,344.101,117.536L344.101,117.536z"/>
	</g>
	<g>
		<path fill="#0060A6" d="M306.315,134.349c-2.173,1.25-4.14,3.312-4.012,5.978l-0.021,0.381c-0.052,0.421,0.119,0.827,0.431,1.095
			l1.054,0.697c3.645,0.648,7.639-0.479,10.745-2.415c0.56-0.406,0.713-1.2,0.307-1.779c-0.405-0.582-1.202-0.713-1.779-0.308
			c-2.351,1.506-5.162,2.171-7.882,2.207l-0.798-0.33l0.457,1.079l0.099-1.058v0.022c-0.082-1.764,1.558-2.647,2.847-3.462
			c0.58-0.404,0.716-1.2,0.333-1.778C307.688,134.096,306.894,133.943,306.315,134.349L306.315,134.349z"/>
		<path fill="#0060A6" d="M315.873,132.783c1.306,1.089-0.277,3.196-0.729,4.531c-0.385,0.576-0.239,1.383,0.358,1.772
			c0.576,0.388,1.361,0.238,1.77-0.355c1.346-2.433,3.224-7.136-0.511-8.33c-0.674-0.245-1.396,0.078-1.644,0.756
			C314.87,131.814,315.216,132.535,315.873,132.783L315.873,132.783z"/>
		<path fill="#0060A6" d="M326.754,132.368c-3.171,1.18-4.644,5.33-2.966,8.237c0.247,0.644,0.981,0.984,1.651,0.72
			c0.648-0.268,0.969-1.003,0.721-1.65c-1.063-1.746-0.384-4.361,1.699-5.001c0.631-0.291,0.888-1.053,0.602-1.704
			C328.167,132.335,327.407,132.078,326.754,132.368L326.754,132.368z"/>
		<path fill="#0060A6" d="M327.462,143.285c3.636,1.288,6.993,5.043,11.107,3.993l0.657-0.332c0.23-0.124,0.419-0.294,0.534-0.538
			l0.571-1.088c1.284-4.174-1.246-9.204-5.096-11.069c-0.627-0.308-1.382-0.051-1.71,0.573c-0.305,0.631-0.048,1.385,0.575,1.71
			c2.611,1.108,3.981,4.279,4.147,6.968l-0.75,1.732l0.529-0.537l-0.811,0.376c0.063,0.008,0.128,0.017,0.191,0.021
			c-3.234-0.687-5.812-2.838-8.795-4.07c-0.622-0.328-1.379-0.073-1.707,0.555C326.579,142.201,326.834,142.956,327.462,143.285
			L327.462,143.285z"/>
	</g>
	<path fill="#D0392B" d="M309.442,129.361c2.15,0.242,4.454,0.674,6.452-0.723c0.594-0.36,0.811-1.125,0.453-1.744
		c-0.358-0.599-1.149-0.814-1.746-0.453c-1.49,0.919-3.248,0.572-4.873,0.389c-0.696-0.081-1.327,0.427-1.409,1.122
		C308.243,128.648,308.746,129.281,309.442,129.361L309.442,129.361z"/>
	<path fill="#D0392B" d="M309.011,132.048c1.938,0.047,3.946,0.252,5.666-0.812c0.619-0.335,0.854-1.1,0.521-1.735
		c-0.337-0.616-1.127-0.834-1.74-0.499c-1.302,0.56-2.766,0.627-4.161,0.513c-0.695-0.077-1.331,0.427-1.407,1.121
		C307.808,131.334,308.315,131.967,309.011,132.048L309.011,132.048z"/>
	<path fill="#D0392B" d="M327.279,130.953c2.002,1.189,4.455,1.402,6.743,1.215c0.691-0.072,1.211-0.697,1.139-1.392
		c-0.068-0.712-0.674-1.207-1.387-1.16c-1.788,0.141-3.741,0.047-5.32-0.922c-0.628-0.328-1.405-0.074-1.729,0.53
		C326.417,129.85,326.651,130.627,327.279,130.953L327.279,130.953z"/>
	<path fill="#F3BDA0" d="M294.657,57.712c0.166-0.652,0.374-1.319,0.541-1.972l0.047-0.243c-0.099-0.439-0.351-0.823-0.738-1.064
		l-0.551-0.386c-2.457-1.559-5.525-1.147-8.03,0.05c-1.853,0.872-1.954,3.174-1.276,4.875c1.331,3.289,4.971,4.301,8.176,4.019
		c1.221-0.132,2.488-0.149,3.255-1.682c0.692-0.708,0.71-1.826,0.011-2.542c-0.697-0.718-1.814-0.735-2.531-0.039
		c-0.38,0.256-0.785,0.699-1.135,0.673c-1.621-0.215-3.457,0.396-4.52-2.048c1.301-0.524,2.603-0.985,4.155-0.404l0.364,0.434
		l-0.722-1.095l1.302,0.697c-0.546-0.25-1.105-0.477-1.651-0.726c-0.401,0.94,0.013,1.99,0.926,2.38
		C293.222,59.038,294.271,58.625,294.657,57.712L294.657,57.712z"/>
	<path fill="#F3BDA0" d="M253.687,39.82c10.577,1.682,16.893,11.133,26.161,15.524c1.489,0.717,3.103,1.092,4.753,1.386
		c0.973,0.185,1.938-0.464,2.117-1.441c0.184-0.973-0.465-1.933-1.441-2.117c-1.28-0.159-2.569-0.452-3.735-1.02
		c-9.422-4.693-16.116-14.188-27.054-15.869c-0.965-0.214-1.939,0.398-2.151,1.36C252.087,38.621,252.7,39.596,253.687,39.82
		L253.687,39.82z"/>
	<path fill="#F3BDA0" d="M224.435,38.343c-10.828,5.471-21.598,11.019-32.387,16.604c-0.887,0.457-1.22,1.544-0.789,2.441
		c0.456,0.893,1.545,1.226,2.443,0.794c10.828-5.73,21.752-11.207,32.646-16.766c0.857-0.542,1.083-1.655,0.58-2.495
		C226.386,38.065,225.274,37.835,224.435,38.343L224.435,38.343z"/>
	<path fill="#F3BDA0" d="M220.184,90.819c0.336,9.899,0.007,19.817-0.045,29.712c-0.011,0.99,0.792,1.815,1.781,1.821
		c0.994,0.015,1.816-0.788,1.826-1.779c0.057-9.955,0.382-19.904,0.047-29.861c-0.016-0.994-0.851-1.783-1.843-1.767
		C220.956,88.996,220.166,89.829,220.184,90.819L220.184,90.819z"/>
	<path fill="#F3BDA0" d="M245.065,94.809c-1.249,9.247,0.419,18.527,1.242,27.74c0.17,0.964,1.093,1.635,2.088,1.468
		c0.963-0.2,1.639-1.124,1.469-2.118c-0.71-8.878-2.409-17.801-1.192-26.72c0.102-0.989-0.61-1.869-1.601-1.972
		C246.079,93.105,245.168,93.818,245.065,94.809L245.065,94.809z"/>
	<polygon fill="#ED849B" points="217.174,78.002 207.893,100.508 232.758,103.206 239.125,91.13 245.738,104.321 262.95,105.814 
		254.68,80.367 	"/>
	<polygon fill="#EB784C" points="211.517,26.937 209.276,53.855 217.473,52.505 208.884,74.84 269.606,79.095 258.712,51.573 
		269.659,33.418 255.329,24.561 222.122,25.136 	"/>
	<g>
		<circle fill="#F3BDA0" cx="239.337" cy="13.548" r="13.202"/>
		<path fill="#F3BDA0" d="M240.032,0.42c-3.421,0.015-6.968-0.623-10.133,0.941c-6.825,3.367-6.311,12.709-3.201,18.526
			c3.134,5.816,10.909,7.075,17.032,5.489c3.158-0.804,6.533-1.605,8.224-4.652c2.884-5.207,0.157-11.206-3.128-15.67
			c-2.083-2.872-5.266-4.485-8.706-5.04c-0.896-0.118-1.689,0.523-1.81,1.417c-0.119,0.896,0.523,1.715,1.418,1.809
			c6.796,1.191,11.021,9.002,9.751,15.499c-4.862,5.102-14.885,5.906-19.46,0.101c-2.887-3.643-3.044-8.827-0.828-12.709
			c2.107-3.721,7.059-2.391,10.803-2.455c0.896,0.012,1.637-0.713,1.647-1.608C241.652,1.171,240.926,0.433,240.032,0.42
			L240.032,0.42z"/>
	</g>
	<path fill="#F3BDA0" d="M188.072,57.092c-0.436-0.515-0.858-1.067-1.293-1.581l-0.171-0.179c-0.416-0.177-0.875-0.19-1.295-0.017
		l-0.633,0.226c-2.697,1.104-4.135,3.843-4.604,6.579c-0.367,2.019,1.455,3.43,3.234,3.861c3.457,0.819,6.384-1.565,8.01-4.345
		c0.597-1.069,1.317-2.111,0.513-3.627c-0.18-0.974-1.08-1.63-2.068-1.478c-0.988,0.153-1.649,1.056-1.496,2.042
		c-0.013,0.46,0.115,1.046-0.11,1.313c-1.114,1.199-1.677,3.052-4.281,2.505c0.321-1.365,0.701-2.697,2.073-3.626l0.565-0.048
		l-1.311-0.043l1.319-0.656c-0.521,0.297-1.024,0.627-1.544,0.926c0.534,0.87,1.629,1.144,2.475,0.621
		C188.324,59.031,188.592,57.935,188.072,57.092L188.072,57.092z"/>
	<g>
		<path fill="#D0392B" d="M221.724,28.2c-0.999,0.59-1.967,1.207-2.996,1.768c-3.905,2.149-8.332,2.64-11.821,5.275
			c-0.82,0.562-0.981,1.703-0.419,2.52c0.59,0.791,1.732,0.984,2.519,0.394c4.544-2.896,10.148-3.583,14.545-6.838
			c0.877-0.502,1.163-1.61,0.63-2.49C223.683,27.98,222.572,27.697,221.724,28.2L221.724,28.2z"/>
		<path fill="#D0392B" d="M208.447,39.863c2.633,3.79,2.757,8.514,4.272,12.737c0.32,0.939,1.306,1.46,2.271,1.169
			c0.968-0.289,1.489-1.306,1.2-2.24c-1.601-4.557-1.813-9.645-4.771-13.677c-0.562-0.849-1.673-1.041-2.492-0.482
			C208.109,37.904,207.885,39.042,208.447,39.863L208.447,39.863z"/>
		<path fill="#D0392B" d="M215.711,53.807c2.204-0.572,4.288-1.479,6.405-2.299c0.905-0.38,1.37-1.428,0.988-2.335
			c-0.35-0.935-1.397-1.398-2.332-1.02c-2.057,0.76-4.022,1.729-6.162,2.215c-0.935,0.32-1.46,1.335-1.17,2.271
			C213.76,53.607,214.777,54.127,215.711,53.807L215.711,53.807z"/>
		<path fill="#D0392B" d="M217.483,51.456c-3.274,7.629-5.384,15.725-8.6,23.385c-0.343,0.927,0.188,1.955,1.114,2.297
			c0.929,0.312,1.958-0.188,2.3-1.144c3.183-7.541,5.231-15.455,8.445-22.967c0.432-0.899,0.055-1.984-0.843-2.416
			C219.002,50.181,217.915,50.556,217.483,51.456L217.483,51.456z"/>
		<path fill="#D0392B" d="M212.103,77.133c17.436-2.144,34.583,2.659,51.926,3.221c0.996,0.072,1.873-0.698,1.945-1.694
			c0.044-0.99-0.699-1.839-1.693-1.911c-17.613-0.628-35.059-5.402-52.739-3.201c-0.995,0.17-1.665,1.093-1.498,2.087
			C210.185,76.628,211.109,77.274,212.103,77.133L212.103,77.133z"/>
		<path fill="#D0392B" d="M257.036,53.509c1.007,9.033,4.847,17.616,8.723,25.782c0.559,0.82,1.672,1.011,2.487,0.448
			c0.819-0.559,1.046-1.699,0.482-2.518c-3.432-7.681-7.247-15.57-8.082-24.004c-0.077-0.991-0.938-1.724-1.934-1.646
			C257.718,51.652,256.958,52.514,257.036,53.509L257.036,53.509z"/>
		<path fill="#D0392B" d="M260.445,55.293c0.811,0.008,1.622,0.017,2.432,0.028c0.995,0.009,1.814-0.793,1.827-1.782
			c0.013-0.994-0.79-1.814-1.783-1.826c-0.812-0.01-1.622-0.02-2.438-0.031c-0.989-0.008-1.814,0.794-1.821,1.785
			C258.649,54.46,259.45,55.28,260.445,55.293L260.445,55.293z"/>
		<path fill="#D0392B" d="M265.711,52.255c1.471-5.245,3.694-10.149,5.739-15.18c0.521-0.866,0.204-1.979-0.663-2.474
			c-0.866-0.492-1.953-0.172-2.443,0.664c-2.288,5.266-4.516,10.562-6.142,16.078c-0.252,0.957,0.338,1.926,1.298,2.209
			C264.46,53.806,265.458,53.215,265.711,52.255L265.711,52.255z"/>
		<path fill="#D0392B" d="M269.659,33.418c-5.659-2.142-11.685-3.717-16.359-7.74c-0.836-0.581-1.949-0.384-2.532,0.423
			c-0.58,0.807-0.383,1.92,0.422,2.499c4.976,4.179,11.3,5.996,17.286,8.232c0.931,0.312,1.96-0.188,2.3-1.117
			C271.087,34.757,270.588,33.73,269.659,33.418L269.659,33.418z"/>
	</g>
	<g>
		<path fill="#D0392B" d="M212.693,80.479c-2.748,6.341-4.271,13.151-6.123,19.804c-0.252,0.96,0.339,1.929,1.327,2.181
			c0.96,0.222,1.931-0.367,2.183-1.327c1.97-6.382,3.098-13.015,5.906-19.147c0.401-0.896,0.023-1.983-0.875-2.385
			C214.183,79.204,213.127,79.583,212.693,80.479L212.693,80.479z"/>
		<path fill="#D0392B" d="M209.675,102.334c8.959,0.043,17.881,1.05,26.852,0.312c0.99-0.017,1.783-0.849,1.765-1.844
			c-0.05-0.994-0.882-1.784-1.876-1.767c-8.91,0.738-17.798-0.296-26.7-0.309c-0.99-0.012-1.814,0.791-1.823,1.78
			C207.88,101.503,208.683,102.323,209.675,102.334L209.675,102.334z"/>
		<path fill="#D0392B" d="M238.817,99.608c0.264-2.134,0.888-4.2,1.517-6.237c0.282-0.96-0.248-1.96-1.209-2.24
			c-0.96-0.282-1.957,0.247-2.24,1.207c-0.688,2.188-1.313,4.403-1.64,6.687c-0.163,0.96,0.519,1.899,1.509,2.061
			C237.712,101.247,238.653,100.598,238.817,99.608L238.817,99.608z"/>
		<path fill="#D0392B" d="M237.142,93.545c0.665,2.44,1.841,4.71,2.562,7.154c0.291,0.966,1.307,1.49,2.242,1.201
			c0.966-0.291,1.488-1.306,1.197-2.273c-0.749-2.442-1.868-4.743-2.589-7.217c-0.32-0.965-1.338-1.46-2.274-1.14
			C237.316,91.591,236.821,92.606,237.142,93.545L237.142,93.545z"/>
		<path fill="#D0392B" d="M243.086,102.304c6.631,1.188,13.139,2.891,19.863,3.51c0.993,0.131,1.903-0.581,2.005-1.571
			c0.133-0.991-0.58-1.903-1.569-2.006c-6.67-0.648-13.146-2.316-19.72-3.476c-0.989-0.161-1.898,0.489-2.061,1.479
			C241.442,101.23,242.096,102.141,243.086,102.304L243.086,102.304z"/>
		<path fill="#D0392B" d="M263.969,101.012c-1.566-7.446-3.013-14.921-4.066-22.449c-0.141-0.996-1.062-1.699-2.028-1.558
			c-0.992,0.138-1.696,1.062-1.556,2.026c1.083,7.651,2.496,15.245,4.151,22.813c0.23,0.964,1.216,1.576,2.182,1.348
			C263.616,102.963,264.23,101.977,263.969,101.012L263.969,101.012z"/>
	</g>
	<g>
		<path fill="#F6AF33" d="M213.142,130.102c-2.882,2.069-5.355,5.261-4.796,8.995l0.023,0.543c-0.006,0.602,0.289,1.143,0.765,1.48
			l1.585,0.833c5.227,0.388,10.693-1.772,14.791-4.943c0.729-0.65,0.833-1.791,0.18-2.55c-0.65-0.76-1.794-0.838-2.553-0.185
			c-3.096,2.463-6.96,3.798-10.784,4.237l-1.168-0.345l0.794,1.45l-0.013-1.501v0.029c-0.364-2.472,1.819-3.947,3.521-5.281
			c0.759-0.653,0.832-1.794,0.208-2.553C215.041,129.553,213.9,129.45,213.142,130.102L213.142,130.102z"/>
		<path fill="#F6AF33" d="M226.383,126.526c1.999,1.349,0.068,4.541-0.375,6.492c-0.462,0.865-0.146,1.983,0.753,2.444
			c0.867,0.461,1.953,0.141,2.443-0.754c1.547-3.62,3.52-10.512-1.908-11.659c-0.99-0.253-1.958,0.307-2.211,1.296
			C224.835,125.306,225.423,126.275,226.383,126.526L226.383,126.526z"/>
		<path fill="#F6AF33" d="M241.656,124.388c-4.297,2.116-5.779,8.173-2.997,12.026c0.441,0.874,1.52,1.251,2.425,0.78
			c0.88-0.474,1.221-1.554,0.781-2.429c-1.747-2.307-1.161-6.088,1.678-7.288c0.849-0.5,1.103-1.611,0.601-2.488
			C243.642,124.141,242.533,123.889,241.656,124.388L241.656,124.388z"/>
		<path fill="#F6AF33" d="M244.214,139.665c5.307,1.294,10.575,6.108,16.222,4.037l0.879-0.558c0.304-0.209,0.547-0.479,0.671-0.837
			l0.653-1.618c1.21-6.058-3.072-12.785-8.762-14.864c-0.927-0.344-1.957,0.126-2.328,1.057c-0.342,0.925,0.128,1.954,1.057,2.324
			c3.836,1.188,6.222,5.459,6.84,9.222l-0.81,2.548l0.67-0.832l-1.093,0.649c0.093,0,0.183,0,0.272,0
			c-4.656-0.504-8.594-3.168-12.972-4.48c-0.927-0.371-1.954,0.098-2.326,1.028C242.816,138.265,243.288,139.294,244.214,139.665
			L244.214,139.665z"/>
	</g>
	<path fill="#EB784C" d="M216.837,122.626c3.066,0.036,6.372,0.315,8.983-1.941c0.788-0.59,0.981-1.701,0.39-2.52
		c-0.592-0.788-1.732-0.984-2.522-0.391c-1.971,1.511-4.496,1.271-6.81,1.246c-0.993-0.013-1.814,0.789-1.825,1.781
		C215.041,121.794,215.843,122.613,216.837,122.626L216.837,122.626z"/>
	<path fill="#EB784C" d="M216.611,126.473c2.74-0.207,5.594-0.207,7.871-1.952c0.82-0.562,1.043-1.672,0.481-2.522
		c-0.562-0.818-1.705-1.011-2.521-0.448c-1.756,0.971-3.804,1.275-5.789,1.315c-0.994-0.014-1.813,0.789-1.826,1.783
		C214.815,125.639,215.619,126.462,216.611,126.473L216.611,126.473z"/>
	<path fill="#EB784C" d="M242.19,122.319c2.991,1.389,6.481,1.34,9.673,0.746c0.965-0.199,1.609-1.155,1.408-2.119
		c-0.198-0.996-1.122-1.606-2.116-1.439c-2.5,0.452-5.271,0.602-7.634-0.537c-0.926-0.372-1.984,0.096-2.356,0.994
		C240.824,120.889,241.263,121.948,242.19,122.319L242.19,122.319z"/>
</g>
<path fill="#77317A" d="M142.045,159.692c-1.006-1.209-0.575-2.603-4.142-2.661c-4.883-0.079-9.788,6.555-9.881,12.967
	c-0.101,6.504,1.146,10.731,5.698,10.802c5.95,0.1,8.39-4.065,9.356-8.13c0.174-0.549,0.229-1.444,1.334-1.423
	c1.026,0.019,1.468,0.621,1.46,1.259c-0.083,5.311-4.73,11.437-12.072,11.314c-8.245-0.139-8.5-7.575-8.521-14.037
	c-0.085-7.992,5.244-15.724,12.833-15.594c2.87,0.045,4.987,1.185,6.506,3.844c0.597,1.031,1.186,2.822-1.193,2.788
	C142.725,160.805,142.448,160.206,142.045,159.692z"/>
<path fill="#77317A" d="M166.26,172.005c0.071,0.807,0.058,1.314,0.046,2.165l-0.108,5.74c-0.024,1.611-0.067,3.822-1.625,3.792
	c-2.133-0.044-1.936-1.993-1.737-3.86c0.208-2.461,0.438-3.691,0.398-6.111c-0.027-2.934-0.164-6.678-3.531-6.745
	c-6.192-0.122-5.628,2.654-5.919,5.158c-0.349,3.393,0.184,5.571,0.043,8.923c-0.068,1.362-0.632,3.178-1.984,3.025
	c-0.984-0.105-1.784-1.101-1.686-2.117c0.536-4.663,1.121-7.46,1.152-11.411c0.013-0.767-0.635-1.16-0.621-1.967
	c0.011-0.684,0.593-0.969,0.604-1.606c0.119-4.289-0.197-7.228-0.131-10.923c0.028-1.489,0.642-3.729,2.031-3.362
	c0.941,0.232,1.455,1.261,1.437,2.282c-0.039,2.206-0.64,3.642-0.521,5.982c0.052,1.744,0.241,2.721,0.578,4.389
	c1.662-1.116,2.979-1.345,4.946-1.22C164.223,164.399,165.76,168.042,166.26,172.005z"/>
<path fill="#77317A" d="M189.422,165.002c0.022,1.146-0.576,2.286-0.495,3.772c0.078,1.447,0.658,2.219,0.777,3.704
	c0.203,2.244-0.389,3.474-0.27,5.682c0.088,1.654,0.344,2.576,0.64,4.22c0.13,0.885-0.172,2.137-1.07,2.231
	c-0.819,0.094-1.329-0.217-1.667-1.137c-0.151-0.501-0.13-0.885-0.159-1.437c-2.081,1.101-2.917,2.34-7.056,2.581
	c0,0-8.9,0.387-9.303-7.041c-0.344-6.372,2.547-12.201,8.242-12.574c2.953-0.171,5.133,0.639,7.222,2.774
	c-0.062-1.146-0.348-1.854-0.025-2.767c0.216-0.562,0.694-0.849,1.347-0.931C188.381,163.997,189.43,164.364,189.422,165.002z
	 M181.926,169.266c-0.718-0.302-0.884-1.096-1.004-1.771c-0.862,0.006-1.353,0.075-2.125,0.251c-3.768,0.984-5.086,4.767-5.11,8.898
	c0.005,4.642,3.156,5.14,6.285,5.173c3.375,0.059,6.24-2.452,6.586-5.918c0.117-0.857-0.124-2.293-0.124-2.293
	c-0.079-1.486,0.187-2.651-0.81-3.615C183.425,168.884,183.099,169.71,181.926,169.266z"/>
<path fill="#77317A" d="M203.22,160.171c-0.05,1.143-0.016,1.868-0.029,3.102l2.787,0.284c0.9,0.05,1.478-0.283,2.34-0.232
	c1.6,0.058,1.594,0.824,1.545,1.758c-0.01,0.768-0.629,1.312-1.286,1.431c-1.233,0.245-1.602-0.271-2.625-0.28l-2.913-0.158
	c-0.014,1.53-0.063,2.424-0.16,3.866c-0.098,1.698,0.079,4.759,0.021,6.505c-0.104,2.291,0.085,3.698,0.188,5.906
	c0.035,0.896-0.06,1.955-1.577,2.026c-1.888,0.152-1.832-1.466-1.78-2.612c0.115-3.486,0.198-8.072,0.279-11.983
	c0.01-1.317,0.021-2.123,0.034-3.482l-3.122,0.053c-1.104-0.012-2.291-0.537-2.279-1.721c0.01-1.192,1.449-1.433,2.641-1.378
	l2.908,0.24c0.056-1.44,0.107-2.211,0.16-3.61c0.096-1.529-0.1-2.339,0.203-3.908c0.171-0.932,0.875-1.602,1.82-1.679
	c1.397-0.115,1.507,0.865,1.542,1.713C203.941,157.667,203.316,158.554,203.22,160.171z"/>
<path fill="#77317A" d="M228.749,171.592c0.083,0.81,0.086,1.315,0.083,2.169l0.006,5.736c0.002,1.613,0.004,3.826-1.553,3.826
	c-2.133,0.001-1.974-1.95-1.812-3.823c0.163-2.464,0.366-3.699,0.28-6.119c-0.081-2.936-0.293-6.672-3.66-6.668
	c-6.193,0.002-5.574,2.769-5.821,5.274c-0.283,3.399,0.294,5.57,0.216,8.926c-0.041,1.363-0.572,3.19-1.928,3.062
	c-0.986-0.08-1.806-1.059-1.722-2.08c0.445-4.677,0.975-7.481,0.932-11.433c0-0.768-0.661-1.148-0.656-1.958
	c-0.005-0.681,0.571-0.979,0.567-1.612c0.039-4.294-0.333-7.229-0.337-10.926c0-1.487,0.57-3.74,1.967-3.403
	c0.944,0.215,1.478,1.231,1.479,2.253c0.001,2.209-0.572,3.659-0.403,5.991c0.081,1.745,0.289,2.72,0.656,4.38
	c1.644-1.151,2.955-1.409,4.927-1.324C226.566,164.026,228.173,167.639,228.749,171.592z"/>
<path fill="#77317A" d="M251.794,165.542c0.006,1.152-0.608,2.277-0.554,3.767c0.052,1.443,0.614,2.229,0.713,3.715
	c0.167,2.244-0.446,3.459-0.363,5.672c0.062,1.653,0.304,2.577,0.567,4.227c0.118,0.888-0.204,2.135-1.107,2.212
	c-0.816,0.08-1.32-0.244-1.644-1.167c-0.143-0.502-0.116-0.887-0.136-1.439c-2.097,1.062-2.955,2.287-7.094,2.454
	c0,0-8.899,0.228-9.178-7.202c-0.238-6.368,2.746-12.147,8.443-12.415c2.953-0.117,5.121,0.729,7.174,2.896
	c-0.042-1.144-0.318-1.854,0.018-2.76c0.226-0.561,0.708-0.838,1.363-0.906C250.773,164.523,251.815,164.904,251.794,165.542z
	 M244.232,169.673c-0.709-0.312-0.861-1.111-0.969-1.791c-0.862-0.005-1.353,0.058-2.127,0.213
	c-3.785,0.917-5.164,4.675-5.253,8.802c-0.077,4.641,3.067,5.193,6.188,5.281c3.372,0.121,6.277-2.333,6.682-5.797
	c0.132-0.857-0.086-2.292-0.086-2.292c-0.055-1.485,0.23-2.646-0.751-3.628C245.741,169.317,245.398,170.138,244.232,169.673z"/>
<path fill="#77317A" d="M265.397,165.418c1.598-0.041,2.866,1.243,3.483,2.925c0.698-1.461,1.333-2.414,3.299-2.469
	c3.037-0.08,4.923,3.053,4.957,6.031c0,1.526-0.18,2.641-0.429,4.048c-0.145,0.77,0.028,1.19,0.004,1.916
	c-0.038,1.616-0.962,2.447-0.757,4.06c0.053,0.467,0.182,0.717,0.192,1.14c-0.011,1.109-0.771,1.979-1.755,2.003
	c-0.779,0.021-1.528-0.469-1.674-1.227c-0.188-0.931,0.088-1.451,0.189-2.302c0.212-1.367,0.766-2.105,0.979-3.516
	c0.094-1.022,0.077-1.786,0.092-2.806c0.043-1.533,0.143-2.472,0.104-3.958c-0.026-0.979-0.836-2.23-1.494-2.213
	c-0.737,0.021-1.331,0.844-1.765,1.624c-0.472,0.819-0.492,1.583-0.549,2.563c-0.131,1.319,0.176,2.124,0.086,3.484
	c-0.025,0.636-0.217,1.11-0.282,1.793c-0.202,1.706-0.133,2.812-0.379,4.474c-0.137,1.024-0.731,1.932-1.715,1.961
	c-0.903,0.022-1.784-0.76-1.686-1.698c0.314-2.178,0.819-3.384,1.049-5.558c0.129-1.49,0.064-2.336,0.107-3.868
	c-0.666-0.321-0.886-0.956-0.904-1.805c-0.019-0.636,0.385-0.905,0.658-1.461c-0.887-0.954-1.529-2.001-2.223-1.852
	c-0.979,0.196-1.543,0.677-2.393,1.127l-1.858,1.196c-0.138,1.024-0.283,1.747-0.338,2.77c-0.061,1.025-0.24,5.281-0.192,6.981
	c0.031,1.355,0.132,2.077,0.085,3.398c-0.056,1.105-0.848,2.275-1.958,2.175c-0.905-0.058-1.708-1.011-1.607-1.908
	c0.211-1.411,0.603-2.187,0.813-3.593c0.273-2.137,0.12-3.406,0.062-5.532c-0.028-1.185-0.157-2.969-0.157-2.969
	c-0.537-0.198-0.836-0.66-0.849-1.212c-0.021-0.807,0.371-1.498,1.229-1.604c-0.261-0.591-0.354-1.056-0.205-1.739
	c0.182-0.854,0.285-1.583,1.517-1.615c0.859-0.021,1.61,0.465,1.756,1.357C262.757,166.599,263.388,165.473,265.397,165.418z"/>
<path fill="#77317A" d="M282.712,171.957c0.868-0.115,1.416,0.342,2.316,0.399c2.867,0.168,5.002-0.507,7.295-0.369
	c1.391,0.081,2.505,0.743,2.437,2.018c-0.14,2.416-2.521,1.676-4.16,1.579c-2.742-0.168-2.844,0.214-5.63,0.044
	c-1.434-0.087-4.915,0.427-4.778-1.987C280.261,172.368,281.55,172.145,282.712,171.957z"/>
<path fill="#77317A" d="M302.314,166.249l0.774-0.604c-0.372-0.465-0.092-1.103,0.36-1.402c0.648-0.477,1.511-0.523,1.724,0.025
	c0.729-1.109,1.296-1.923,1.944-3.077c1.05-1.962,1.739-3.459,2.503-5.377c0.199-0.641,0.728-0.942,1.51-0.905
	c0.659,0.034,1.358,0.538,1.325,1.261c-0.109,1.745-1.529,4.055-2.905,6.275c-1.097,1.623-1.866,2.654-3.251,4.022
	c1.043,2.375,1.955,3.686,2.961,6.015c1.674,3.896,3.286,5.326,4.915,9.354c0.295,0.802-0.312,1.958-1.295,1.92
	c-1.931-0.065-4.232-5.703-5.951-9.81c-0.96-2.329-1.789-3.431-2.956-5.672c-0.329,0.383-0.61,0.644-0.936,0.898
	c-0.328,0.305-0.532,0.477-0.817,0.648c0.057,1.953,0.15,3.185,0.206,5.141c0.105,3.146,0.288,5.27,0.309,8.203
	c0.016,1.531-0.354,1.918-1.214,1.922c-1.396,0.015-1.813-0.834-1.819-1.683c-0.018-2.512,0.096-3.404,0.078-5.573
	c-0.023-2.717,0.052-4.164,0.03-6.886c-0.576,0.007-1.073-0.33-1.237-0.883c-0.299-0.89,0.807-1.41,1.335-2.007
	c0.016-3.103,0.041-4.977,0.018-8.165c-0.016-1.526-0.062-2.591-0.072-4.08c-0.011-1.106,0.474-2.002,1.376-2.094
	c2.379-0.274,1.428,3.815,1.282,6.322C302.363,162.377,302.375,163.823,302.314,166.249z"/>
<path fill="#77317A" d="M334.506,173.25c0.029,0.852-0.514,1.864-1.335,1.854c-0.861-0.01-1.517-0.233-2.419-0.284
	c-2.096-0.115-3.411,0.167-5.504,0.184c-1.438,0.023-2.261,0.051-3.737,0.033l-0.098,1.274c-0.194,2.47,2.964,6.122,5.961,6.16
	c2.176,0.028,3.584-1.271,4.718-3.001c0.541-0.803,1.043-1.603,1.986-1.377c0.902,0.139,1.505,0.954,1.375,1.806
	c-0.487,2.968-4.87,5.465-8.442,5.415c-4.312-0.055-8.69-4.45-8.628-9.509c0.06-5.145,4.074-11.172,9.491-11.104
	C331.98,164.757,334.349,169.083,334.506,173.25z M326.553,172.338c1.725-0.018,2.671-0.261,4.438-0.364l-0.108-1.022
	c-0.104-1.918-1.973-3.475-3.41-3.491c-2.298-0.028-4.992,2.231-5.312,4.738C323.841,172.35,324.83,172.359,326.553,172.338z"/>
<path fill="#77317A" d="M348.139,163.547c1.715,0.066,3.418,0.727,4.614,1.834c0.477,0.527,0.824,1.138,1.128,1.789
	c0.388,0.691,0.607,1.467,0.699,2.281c0.124,1.193-0.232,1.946-0.275,3.223c-0.224,2.926-0.364,4.58-0.263,7.478
	c0.02,0.68,0.247,1.156,0.103,1.834c-0.236,0.84-0.753,1.499-1.62,1.642c-1.365,0.161-1.535-1.846-1.693-3.215
	c-0.124-1.238,0.519-1.935,0.562-3.212l0.295-6.074c0.021-0.636-0.004-1.062-0.027-1.616c0.018-0.382,0.07-0.851-0.159-1.239
	c-0.227-0.519-0.374-1.034-0.733-1.304c-0.361-0.312-0.889-0.461-1.415-0.69c-1.382-0.437-2.428,0.121-3.76,0.664
	c-0.918,0.396-1.428,0.883-2.027,1.543c-0.296,0.328-0.84,0.518-1.104,0.936c-0.443,1.045-0.305,1.774-0.348,2.968l-0.481,9.125
	c-0.028,0.679,0.072,1.323-0.15,1.871c-0.183,0.504-0.771,0.864-1.346,0.841c-0.657-0.022-1.214-0.431-1.355-1.032
	c-0.145-0.641,0.164-1.268,0.192-2.074l0.536-12.874c0.038-1.144,0.062-1.825,0.182-2.927c0.063-0.594,0.33-1.226,0.953-1.412
	c0.874-0.351,2.07,0.718,1.873,1.688C344.137,163.996,345.836,163.463,348.139,163.547z"/>
<path fill="#77317A" d="M367.712,160.102c-0.027,1.148,0.021,1.871,0.036,3.105l2.797,0.213c0.903,0.032,1.479-0.312,2.337-0.284
	c1.598,0.019,1.607,0.787,1.579,1.72c0.006,0.768-0.599,1.326-1.255,1.465c-1.225,0.27-1.602-0.236-2.629-0.224l-2.914-0.085
	c0.018,1.531-0.008,2.425-0.076,3.869c-0.06,1.701,0.186,4.757,0.166,6.5c-0.052,2.295,0.168,3.695,0.318,5.907
	c0.052,0.89-0.016,1.953-1.535,2.059c-1.886,0.196-1.864-1.421-1.835-2.57c0.037-3.483,0.024-8.072,0.012-11.985
	c-0.013-1.315-0.027-2.125-0.04-3.484l-3.12,0.128c-1.107,0.013-2.3-0.481-2.322-1.673c-0.008-1.188,1.42-1.465,2.616-1.436
	l2.914,0.175c0.021-1.446,0.056-2.212,0.076-3.613c0.063-1.53-0.152-2.342,0.114-3.915c0.156-0.938,0.848-1.625,1.783-1.723
	c1.396-0.147,1.534,0.829,1.582,1.676C368.383,157.585,367.774,158.488,367.712,160.102z"/>
<path fill="#77317A" d="M92.182,196.464c-1.054-1.164-0.678-2.577-4.246-2.48c-4.879,0.132-9.507,6.978-9.346,13.386
	c0.167,6.499,1.583,10.673,6.137,10.548c5.947-0.163,8.219-4.434,9.018-8.532c0.148-0.561,0.167-1.452,1.275-1.483
	c1.025-0.025,1.49,0.557,1.506,1.191c0.135,5.312-4.259,11.636-11.599,11.838c-8.243,0.225-8.802-7.203-9.089-13.655
	c-0.408-7.979,4.601-15.938,12.189-16.145c2.87-0.076,5.031,0.971,6.656,3.561c0.64,1.004,1.3,2.772-1.077,2.836
	C92.91,197.548,92.608,196.961,92.182,196.464z"/>
<path fill="#77317A" d="M115.884,208.59c0.079,0.808,0.077,1.316,0.077,2.167l-0.015,5.739c-0.002,1.611-0.01,3.825-1.568,3.817
	c-2.134-0.003-1.963-1.96-1.797-3.828c0.171-2.467,0.38-3.695,0.304-6.12c-0.073-2.931-0.269-6.67-3.635-6.682
	c-6.196-0.013-5.588,2.749-5.837,5.253c-0.299,3.401,0.271,5.571,0.183,8.929c-0.047,1.355-0.582,3.185-1.937,3.056
	c-0.986-0.091-1.806-1.067-1.72-2.088c0.465-4.677,1.002-7.479,0.973-11.431c0-0.766-0.653-1.148-0.653-1.954
	c0.002-0.682,0.576-0.979,0.58-1.617c0.051-4.29-0.312-7.226-0.304-10.921c0.005-1.487,0.585-3.74,1.979-3.395
	c0.945,0.214,1.474,1.235,1.471,2.256c-0.005,2.209-0.583,3.649-0.427,5.992c0.08,1.742,0.285,2.72,0.65,4.376
	c1.642-1.143,2.956-1.394,4.923-1.302C113.729,201.018,115.319,204.635,115.884,208.59z"/>
<path fill="#77317A" d="M123.705,193.044c1.028,0.017,2.446,0.942,2.296,2.171c-0.142,1.102-0.442,1.688-2.166,1.652
	c-0.984-0.016-1.788-0.97-1.767-1.99C122.088,193.942,122.802,193.023,123.705,193.044z M124.701,215.503
	c0.067,0.856,0.546,1.416,0.529,2.31c-0.072,1.53-0.68,3.217-2.075,3.272c-0.902,0.023-1.62-1.055-1.562-1.901
	c0.107-1.189,0.197-1.695,0.26-2.76c0.124-2.165,0.026-3.483,0.069-5.692c-0.059,2.933-0.064-4.979,0.148-7.565
	c0.107-1.19,0.461-2.625,1.895-2.507c1.312,0.108,1.126,1.212,1.15,2.061C125.242,206.717,124.613,211.509,124.701,215.503z"/>
<path fill="#77317A" d="M134.582,197.527c-0.143,1.954-0.402,3.189-0.423,5.143l0.047,7.697c-0.017,1.789,0.094,2.809,0.077,4.679
	c-0.018,1.788-0.026,2.467-0.088,4.722c-0.008,0.59-0.182,1.524-1.205,1.513c-1.52-0.015-1.672-1.08-1.703-2.184
	c-0.068-1.362,0.022-2.253-0.004-3.702c-0.028-1.571-0.101-2.378-0.085-3.954l0.088-8.8c0.024-2.211,0.074-3.401,0.18-5.573
	c0.057-1.613-0.101-2.42,0.331-4.328c0.213-0.935,0.677-2.078,1.702-2.065c1.152,0.011,1.382,1.543,1.369,2.776
	C134.85,195.023,134.678,196,134.582,197.527z"/>
<path fill="#77317A" d="M155.787,191.529c-0.189,1.245-0.429,3.17-0.54,5.133c-0.249,5.16,0.837,8.175,0.751,13.327
	c-0.047,1.659-0.286,2.698-0.245,4.393l0.013,3.786c0.04,0.895,0.497,1.889-1.059,1.971c-0.861,0.042-1.598-0.814-1.434-1.674
	c-2.11,1.428-3.689,1.933-6.237,1.933c-4.726-0.057-9.665-1.043-9.951-7.198c-0.269-5.651,3.636-10.95,9.166-11.23
	c1.762-0.089,3.764,0.536,5.177,0.801c0.705,0.181,0.944,0.04,1.518,0.012l-0.266-5.604c-0.083-1.826,0.186-3.073,0.229-4.78
	c0.071-2.046,1.378-2.194,1.378-2.194C155.23,190.24,155.956,190.754,155.787,191.529z M147.166,217.88
	c4.834-0.243,6.309-3.002,6.181-6.612l-0.148-4.885c-0.05-1.106-1.262-1.551-2.249-1.505c-2.786,0.142-2.585,0.9-3.574,0.905
	c-0.983,0.008-0.682-0.519-0.71-1.156c-0.014-0.294-0.481-0.615-0.809-0.597c-3.32,0.167-6.633,4.804-6.432,9.05
	C139.602,216.901,143.64,218.056,147.166,217.88z"/>
<path fill="#77317A" d="M169.528,203.89c-2.581,0.126-5.112,3.229-4.964,6.458l0.385,7.555c0.068,1.528,0.483,3.382-1.647,3.483
	c-1.847,0.093-1.562-1.752-1.626-3.112l-0.552-12.188c-0.031-0.636-0.088-1.014,0.049-1.619c0.234-1.115,0.136-2.391,1.943-2.393
	c1.275-0.021,1.213,0.452,1.375,1.294c1.824-1.45,3.017-2.314,5.234-2.424c3.648-0.18,5.457,4.371,5.419,8.076
	c0,0.892-0.569,1.902-1.473,1.946c-0.9,0.04-1.696-0.26-1.684-1.793C172.004,206.829,171.086,203.81,169.528,203.89z"/>
<path fill="#77317A" d="M194.979,208.852c-0.015,0.851-0.616,1.837-1.434,1.782c-0.86-0.056-1.502-0.308-2.4-0.408
	c-2.081-0.214-3.414,0.001-5.503-0.091c-1.437-0.052-2.259-0.059-3.732-0.147l-0.17,1.265c-0.331,2.443,2.624,6.253,5.611,6.438
	c2.167,0.141,3.651-1.084,4.874-2.751c0.587-0.775,1.135-1.552,2.06-1.275c0.893,0.181,1.454,1.025,1.271,1.867
	c-0.65,2.937-5.164,5.206-8.727,4.983c-4.298-0.277-8.427-4.881-8.089-9.923c0.351-5.13,4.692-10.946,10.098-10.601
	C192.929,200.253,195.055,204.687,194.979,208.852z M187.09,207.545c1.723,0.068,2.682-0.128,4.45-0.144l-0.05-1.025
	c0.003-1.915-1.776-3.561-3.209-3.649c-2.292-0.149-5.109,1.972-5.566,4.457C184.384,207.417,185.368,207.476,187.09,207.545z"/>
<path fill="#77317A" d="M207.787,200.728c1.722-0.076,3.465,0.441,4.742,1.45c0.511,0.487,0.904,1.066,1.26,1.691
	c0.438,0.661,0.711,1.413,0.87,2.214c0.211,1.185-0.086,1.958-0.034,3.235c-0.005,2.937-0.018,4.596,0.302,7.471
	c0.07,0.68,0.333,1.132,0.24,1.821c-0.17,0.855-0.635,1.555-1.489,1.766c-1.345,0.267-1.673-1.716-1.931-3.066
	c-0.216-1.223,0.368-1.97,0.322-3.247l-0.167-6.075c-0.025-0.636-0.084-1.056-0.147-1.606c-0.015-0.383,0.006-0.853-0.254-1.224
	c-0.269-0.497-0.453-1.001-0.833-1.238c-0.38-0.281-0.917-0.387-1.458-0.575c-1.409-0.322-2.411,0.317-3.698,0.967
	c-0.885,0.465-1.354,0.999-1.9,1.7c-0.273,0.354-0.798,0.588-1.027,1.021c-0.37,1.08-0.172,1.795-0.125,2.985l0.205,9.137
	c0.029,0.681,0.177,1.309-0.005,1.869c-0.146,0.518-0.702,0.925-1.275,0.949c-0.657,0.028-1.246-0.331-1.435-0.912
	c-0.188-0.634,0.073-1.28,0.041-2.089l-0.441-12.871c-0.047-1.144-0.073-1.825-0.037-2.931c0.016-0.599,0.237-1.242,0.843-1.481
	c0.846-0.42,2.117,0.547,1.993,1.527C203.836,201.496,205.492,200.828,207.787,200.728z"/>
<path fill="#77317A" d="M222.438,203.345c-0.088,0.465-0.499,0.542-1.235,0.273c-0.487-0.137-1.023-0.06-1.221-0.446
	c-0.158-0.385,0.055-0.89,0.063-1.443c0.078-2.255-0.057-3.955-0.026-5.91c0.015-0.897,0.645-1.819,1.672-1.803
	c1.437,0.025,1.544,1.007,1.529,1.857C223.177,198.513,222.841,201.436,222.438,203.345z"/>
<path fill="#77317A" d="M228.866,214.809c0.04-0.846,0.626-1.836,1.53-1.793c0.984,0.05,1.346,0.965,1.502,1.994
	c0.422,2.913,2.609,3.494,4.986,3.616c2.995,0.154,4.261-0.549,4.371-2.587c0.104-1.993-1.732-4.685-3.018-5.262
	c-1.285-0.533-2.894-0.487-4.559-0.784c-2.563-0.517-4.097-1.917-4.096-4.299c-0.014-2.855,3.866-4.739,6.939-4.581
	c3.076,0.157,6.578,1.525,6.443,4.116c-0.039,0.806-0.486,1.465-1.634,1.407c-1.884-0.099-0.61-2.543-4.955-2.769
	c-1.638-0.08-3.772,0.66-3.854,2.271c-0.085,1.573,5.781,1.023,7.777,2.147c2.438,1.402,3.953,4.588,3.775,7.982
	c-0.233,4.548-3.816,5.429-7.218,5.254C232.842,221.318,228.64,219.103,228.866,214.809z"/>
<path fill="#77317A" d="M270.6,195.568c-0.757-1.31-1.574-2.353-3.087-2.236c-1.637,0.127-4.99,3.837-4.43,6.989
	c0.324,2.281,2.377,3.864,4.893,5.678c2.597,1.76,4.803,3.29,5.018,5.665c0.429,4.825-2.304,8.615-6.558,8.944
	c-4.5,0.349-7.14-2.562-6.984-6.109c0.03-1.836,0.362-4.719,2.084-4.167c0.929,0.267,1.688,1.107,1.665,1.961
	c-0.053,1.491-0.906,1.691-0.702,2.82c0.329,1.64,1.906,2.454,3.592,2.41c2.425-0.061,4.147-2.408,3.663-5.142
	c-0.344-1.895-1.882-2.711-3.457-3.954c-2.813-1.953-6.133-4.555-6.345-7.564c-0.368-5.041,4.268-10.432,7.299-10.625
	c3.317-0.21,5.35,2.275,6.622,5.074c0.393,0.866,1.2,1.226,1.187,2.21c-0.008,1.021-0.631,2.094-1.734,2.182
	c-0.778,0.059-1.297-0.243-1.754-0.89C271.016,197.962,271.333,196.661,270.6,195.568z"/>
<path fill="#77317A" d="M295.002,210.219c-0.053,0.853-0.695,1.806-1.508,1.707c-0.858-0.099-1.485-0.384-2.375-0.533
	c-2.074-0.326-3.41-0.185-5.495-0.384c-1.434-0.124-2.255-0.177-3.717-0.349l-0.219,1.259c-0.433,2.432,2.356,6.389,5.333,6.738
	c2.16,0.251,3.688-0.896,4.98-2.497c0.616-0.743,1.193-1.489,2.104-1.167c0.885,0.231,1.412,1.105,1.192,1.935
	c-0.769,2.906-5.366,4.934-8.91,4.52c-4.282-0.502-8.213-5.319-7.67-10.347c0.555-5.111,5.131-10.688,10.507-10.066
	C293.304,201.513,295.249,206.058,295.002,210.219z M287.175,208.498c1.723,0.16,2.688,0.014,4.454,0.09l-0.016-1.028
	c0.083-1.916-1.627-3.651-3.052-3.817c-2.284-0.268-5.182,1.706-5.736,4.159C284.486,208.224,285.461,208.337,287.175,208.498z"/>
<path fill="#77317A" d="M309.292,203.398c-2.585,0.077-5.171,3.127-5.083,6.356l0.242,7.566c0.041,1.527,0.414,3.389-1.715,3.449
	c-1.848,0.052-1.529-1.783-1.562-3.147l-0.327-12.194c-0.015-0.641-0.065-1.022,0.078-1.617c0.261-1.114,0.187-2.391,1.995-2.359
	c1.272,0.01,1.2,0.477,1.349,1.325c1.85-1.417,3.054-2.255,5.272-2.32c3.653-0.105,5.377,4.485,5.272,8.187
	c-0.017,0.896-0.608,1.889-1.513,1.917c-0.902,0.021-1.688-0.296-1.649-1.824C311.715,206.39,310.851,203.357,309.292,203.398z"/>
<path fill="#77317A" d="M323.928,204.937l4.686,9.884l3.69-9.42c0.322-0.893,0.028-1.744,0.603-2.508
	c0.45-0.601,0.938-1.111,1.72-1.074c0.984,0.035,1.563,1.096,1.566,2.159c0.008,0.765-0.893,1.876-1.376,3.027l-4.626,11.207
	c0.208,0.638,0.125,1.148-0.073,1.701c-0.326,0.894-1.018,1.62-1.964,1.541c-0.901-0.077-1.399-0.971-1.566-1.858
	c-0.086-0.515,0.078-0.894,0.072-1.45l-1.037-2.335l-4.112-8.99c-0.371-0.804-0.699-1.315-1.034-2.076
	c-0.372-0.765-1.155-1.141-0.996-2.037c0.2-0.937,0.976-1.579,1.881-1.5c0.741,0.041,1.196,0.632,1.404,1.31
	C323.143,203.622,323.509,204.044,323.928,204.937z"/>
<path fill="#77317A" d="M342.475,194.32c1.026,0.015,2.453,0.926,2.315,2.155c-0.141,1.104-0.434,1.699-2.154,1.676
	c-0.989-0.014-1.798-0.959-1.787-1.981C340.862,195.238,341.57,194.308,342.475,194.32z M343.638,216.787
	c0.07,0.854,0.552,1.413,0.541,2.307c-0.058,1.525-0.652,3.221-2.053,3.287c-0.897,0.032-1.627-1.043-1.569-1.893
	c0.094-1.187,0.18-1.695,0.231-2.758c0.114-2.17,0.011-3.486,0.033-5.699c-0.035,2.933-0.104-4.975,0.09-7.564
	c0.101-1.192,0.447-2.632,1.881-2.531c1.312,0.103,1.137,1.205,1.163,2.059C344.114,207.993,343.521,212.789,343.638,216.787z"/>
<path fill="#77317A" d="M361.908,205.435c-1.126-1.275-2.723-1.75-4.562-1.604c-4.013,0.269-6.305,3.941-5.953,8.732
	c0.229,3.096,2.204,5.415,6.05,5.11c2.13-0.165,3.493-0.652,4.19-3.522c0.269-0.829,0.648-1.84,1.589-1.914
	c1.065-0.078,2.137,1.073,1.966,2.111c-0.769,3.593-3.807,6.007-7.532,6.294c-5.975,0.466-8.792-3.276-9.132-7.938
	c-0.417-5.727,2.276-11.136,8.539-11.624c3.643-0.286,7.775,1.103,8.71,4.267c0.283,1.128,0.034,2.768-1.035,2.853
	C362.486,208.375,362.846,206.513,361.908,205.435z"/>
<path fill="#77317A" d="M385.656,209.29c-0.008,0.854-0.597,1.837-1.418,1.791c-0.859-0.058-1.502-0.312-2.4-0.406
	c-2.087-0.216-3.409,0.004-5.503-0.084c-1.44-0.044-2.255-0.053-3.734-0.142l-0.156,1.267c-0.302,2.45,2.681,6.253,5.675,6.438
	c2.172,0.134,3.637-1.093,4.845-2.768c0.579-0.775,1.115-1.549,2.046-1.28c0.894,0.182,1.464,1.03,1.293,1.87
	c-0.623,2.94-5.111,5.218-8.673,4.997c-4.304-0.266-8.477-4.865-8.188-9.912c0.292-5.136,4.574-10.964,9.983-10.628
	C383.52,200.684,385.689,205.119,385.656,209.29z M377.753,207.994c1.724,0.065,2.683-0.133,4.449-0.147l-0.062-1.029
	c-0.017-1.915-1.812-3.559-3.245-3.649c-2.291-0.14-5.091,1.987-5.52,4.473C375.05,207.87,376.035,207.931,377.753,207.994z"/>
<path fill="#77317A" d="M137.528,241.771c-0.374-0.702-0.75-1.272-1.562-1.272c-0.882,0-2.793,1.777-2.64,3.421
	c0.112,1.185,1.123,2.104,2.398,3.113c1.319,1.029,2.441,1.886,2.462,3.112c0.046,2.498-1.562,4.34-3.849,4.34
	c-2.419,0-3.717-1.6-3.499-3.42c0.111-0.94,0.375-2.387,1.276-2.059c0.485,0.175,0.857,0.636,0.815,1.072
	c-0.088,0.769-0.572,0.832-0.483,1.426c0.109,0.855,0.922,1.339,1.825,1.381c1.299,0.065,2.311-1.074,2.157-2.498
	c-0.111-0.986-0.881-1.492-1.695-2.17c-1.408-1.14-3.102-2.589-3.102-4.145c0-2.609,2.685-5.195,4.311-5.173
	c1.783,0.023,2.795,1.382,3.345,2.871c0.175,0.461,0.593,0.681,0.551,1.185c-0.045,0.526-0.418,1.051-1.012,1.051
	c-0.417,0-0.682-0.174-0.904-0.524C137.661,243,137.879,242.364,137.528,241.771z"/>
<path fill="#77317A" d="M143.62,248.255c0.153-1.292,1.584-2.477,2.817-2.477c0.77,0,1.759,0.789,1.847,1.775l0.066,0.526
	c-0.947,0.067-1.45,0.196-2.376,0.22C145.05,248.321,144.522,248.321,143.62,248.255z M146.634,244.354
	c-2.906,0-5.019,3.134-5.019,5.788c0,2.607,2.377,4.843,4.688,4.843c1.914,0,4.247-1.313,4.488-2.848
	c0.065-0.44-0.286-0.856-0.748-0.923c-0.507-0.087-0.771,0.308-1.055,0.725c-0.595,0.897-1.342,1.578-2.507,1.578
	c-1.608,0-3.324-1.865-3.234-3.134l0.042-0.66c0.794,0,1.233-0.021,2.001-0.042c1.124-0.021,1.827-0.175,2.95-0.133
	c0.484,0.021,0.836,0.133,1.297,0.133c0.441,0,0.728-0.527,0.705-0.964C150.131,246.568,148.833,244.354,146.634,244.354z"/>
<path fill="#77317A" d="M156.728,246.045c-1.386,0-2.837,1.535-2.816,3.201l0.021,3.903c0,0.789,0.177,1.753-0.966,1.753
	c-0.99,0-0.792-0.943-0.792-1.646v-6.29c0-0.328-0.021-0.526,0.064-0.834c0.177-0.569,0.132-1.227,1.101-1.183
	c0.683,0.022,0.638,0.263,0.705,0.701c1.012-0.701,1.673-1.118,2.859-1.118c1.958,0,2.816,2.389,2.708,4.297
	c-0.046,0.461-0.353,0.964-0.837,0.964c-0.484,0-0.903-0.175-0.858-0.964C157.983,247.625,157.564,246.045,156.728,246.045z"/>
<path fill="#77317A" d="M163.898,246.793l2.487,5.107l2.001-4.845c0.197-0.458,0.021-0.898,0.33-1.293
	c0.242-0.328,0.507-0.57,0.925-0.549c0.527,0.023,0.836,0.572,0.836,1.118c0,0.395-0.486,0.964-0.749,1.558l-2.506,5.765
	c0.108,0.329,0.084,0.591-0.048,0.877c-0.174,0.462-0.548,0.832-1.054,0.79c-0.484-0.045-0.747-0.507-0.836-0.965
	c-0.042-0.265,0.042-0.461,0.042-0.747l-0.548-1.205l-2.179-4.646c-0.196-0.416-0.373-0.679-0.55-1.074
	c-0.197-0.394-0.615-0.593-0.527-1.051c0.109-0.482,0.505-0.811,1.012-0.769c0.396,0.045,0.638,0.328,0.749,0.681
	C163.48,246.115,163.68,246.333,163.898,246.793z"/>
<path fill="#77317A" d="M173.491,240.788c0.548,0,1.299,0.461,1.252,1.097c-0.064,0.569-0.218,0.877-1.145,0.877
	c-0.526,0-0.966-0.482-0.966-1.01C172.633,241.27,173.006,240.788,173.491,240.788z M174.261,252.363
	c0.021,0.437,0.328,0.723,0.307,1.185c-0.022,0.786-0.33,1.665-1.078,1.708c-0.485,0.021-0.902-0.527-0.858-0.964
	c0.045-0.615,0.088-0.877,0.109-1.426c0.044-1.117-0.021-1.797-0.021-2.938c0,1.512-0.088-2.565,0-3.9
	c0.042-0.614,0.219-1.359,0.99-1.317c0.705,0.046,0.614,0.615,0.638,1.053C174.457,247.824,174.171,250.302,174.261,252.363z"/>
<path fill="#77317A" d="M184.709,247.208c-0.552-0.701-1.386-1.008-2.375-1.008c-2.157-0.022-3.52,1.774-3.52,4.252
	c0,1.6,0.968,2.871,3.036,2.871c1.143,0,1.869-0.196,2.376-1.643c0.154-0.439,0.419-0.922,0.922-0.922
	c0.571,0,1.101,0.637,0.969,1.163c-0.528,1.817-2.266,2.938-4.267,2.938c-3.213,0-4.575-2.039-4.575-4.45
	c0-2.959,1.647-5.635,5.014-5.635c1.959,0,4.135,0.877,4.488,2.543c0.133,0.594-0.089,1.426-0.661,1.426
	C184.91,248.744,185.172,247.799,184.709,247.208z"/>
<path fill="#77317A" d="M190.386,248.701c0.153-1.292,1.583-2.477,2.816-2.477c0.768,0,1.759,0.789,1.848,1.775l0.064,0.526
	c-0.946,0.067-1.452,0.196-2.375,0.22C191.815,248.766,191.287,248.766,190.386,248.701z M193.399,244.799
	c-2.905,0-5.015,3.134-5.015,5.788c0,2.607,2.375,4.843,4.686,4.843c1.912,0,4.246-1.313,4.487-2.848
	c0.066-0.44-0.286-0.856-0.749-0.923c-0.505-0.087-0.768,0.308-1.054,0.725c-0.596,0.897-1.345,1.578-2.51,1.578
	c-1.606,0-3.321-1.865-3.235-3.134l0.045-0.66c0.792,0,1.232-0.021,2.002-0.042c1.122-0.021,1.827-0.175,2.948-0.133
	c0.484,0.021,0.835,0.133,1.298,0.133c0.44,0,0.727-0.527,0.703-0.964C196.897,247.013,195.599,244.799,193.399,244.799z"/>
<path fill="#77317A" d="M220.449,253.568c-0.375-0.133-0.397-0.176-0.528-0.286c-0.551-0.504-2.373,0.133-2.903-0.504
	c-0.354-0.415-0.264-3.309-0.2-3.727c0.244-1.556,0.684-2.629,3.479-2.629c2.266,0,2.991,1.27,2.991,2.98
	C223.287,252.034,221.9,253.568,220.449,253.568z M219.767,254.794c2.949,0.111,5.083-1.841,5.083-5.392
	c0-2.521-1.494-4.451-4.4-4.451c-1.387,0-2.308,0.133-3.605,0.812c0.064-0.504-0.312-0.964-0.815-0.964
	c-0.772,0-0.772,0.68-0.772,1.271c0,0.79,0.158,1.36,0.158,2.216c0,1.205-0.158,1.861-0.201,3.046
	c-0.111,2.411-0.153,3.837-0.265,6.16c-0.043,0.943,0.112,1.338-0.111,2.563c-0.085,0.417,0.376,0.812,0.793,0.79
	c0.354-0.023,0.572-0.416,0.64-0.768c0.176-0.877,0.307-1.314,0.351-2.17c0.042-0.832-0.065-1.315-0.065-2.149
	c0-0.612-0.179-1.401,0.086-1.6C217.262,253.743,218.12,254.728,219.767,254.794z"/>
<path fill="#77317A" d="M233.939,246.276c1.123,0.24,2.225,0.855,2.203,1.994s-0.09,2.062-0.772,3.134
	c-0.858,1.338-1.823,2.281-3.431,2.257c-1.891-0.021-3.495-1.423-3.495-3.329c0-1.775,0.989-3.553,2.022-4.144
	c0.439-0.263,0.814-0.329,1.298-0.504c0.349,0.395,0.682,0.569,1.212,0.637C233.304,246.363,233.59,246.363,233.939,246.276z
	 M234.205,244.937c-0.614-0.438-0.726-0.656-1.869-0.744c-0.922-0.067-1.562,0.088-2.42,0.416c-1.059,0.417-1.672,0.835-2.334,1.754
	c-0.789,1.163-0.879,2.169-0.832,3.595c0.063,1.621,0.285,2.784,1.451,3.882c1.123,1.096,2.266,1.292,3.828,1.292
	c1.494,0,2.482-0.328,3.631-1.25c1.144-0.919,1.604-1.819,1.977-3.267c0.289-1.094,0.465-1.841,0.156-2.915
	c-0.242-0.789-0.528-1.293-1.168-1.841C235.877,245.245,235.019,245.268,234.205,244.937z"/>
<path fill="#77317A" d="M247.361,244.479c-0.043-0.416-0.35-0.789-0.79-0.834c-0.528-0.043-0.836,0.46-0.968,0.964
	c-0.112,0.439,0.086,0.747,0.132,1.184c0.042,0.504,0.106,0.877,0.153,1.381c0.043,0.942,0.086,1.536,0.063,2.501
	c-0.021,0.591-0.021,0.985-0.153,1.556c-0.242,1.226-0.99,2.344-3.034,2.344c-2.112,0-1.958-1.052-1.937-2.146
	c0.021-1.537,0.264-2.128,0.725-3.378c0.377-1.008,1.08-1.381,1.365-2.541c0.111-0.461-0.418-0.922-0.925-0.9
	c-0.503,0.023-0.483,0.286-0.704,0.482c-0.461,0.439-0.551,0.877-0.838,1.471c-0.809,1.687-1.254,2.673-1.254,4.688
	c0,2.082,0.576,3.881,3.653,3.881c1.298,0,2.224-0.174,3.171-1.029c0.063,0.415,0.417,0.701,0.836,0.677
	c0.922-0.042,0.636-0.569,0.832-1.027c0.243-0.66-0.105-1.118-0.086-1.865c0.043-0.812,0.307-1.513,0.35-2.082
	c0.022-0.308-0.216-0.525-0.417-0.767C247.471,247.26,247.514,246.121,247.361,244.479z"/>
<path fill="#77317A" d="M254.003,246.121c-1.386,0-2.836,1.535-2.814,3.201l0.021,3.903c0,0.789,0.175,1.753-0.968,1.753
	c-0.99,0-0.791-0.943-0.791-1.646v-6.29c0-0.328-0.021-0.526,0.065-0.834c0.179-0.569,0.132-1.227,1.101-1.183
	c0.682,0.022,0.641,0.263,0.704,0.701c1.011-0.701,1.673-1.118,2.859-1.118c1.958,0,2.815,2.389,2.705,4.297
	c-0.043,0.461-0.351,0.964-0.837,0.964c-0.481,0-0.9-0.175-0.857-0.964C255.258,247.7,254.841,246.121,254.003,246.121z"/>
<path fill="#77317A" d="M266.061,242.725c-0.064,1.007-0.218,1.643-0.196,2.651l0.066,3.969c0,0.92,0.065,1.446,0.065,2.411
	c0,0.92,0,1.271-0.021,2.433c0,0.307-0.09,0.789-0.64,0.789c-0.813,0-0.88-0.548-0.922-1.118c-0.024-0.702,0-1.163-0.024-1.908
	c-0.021-0.81-0.066-1.226-0.066-2.037v-4.538c0-1.139,0.021-1.754,0.066-2.871c0.045-0.832-0.066-1.251,0.157-2.236
	c0.107-0.482,0.349-1.074,0.9-1.074c0.613,0,0.746,0.791,0.746,1.426C266.194,241.432,266.108,241.936,266.061,242.725z"/>
<path fill="#77317A" d="M270.517,248.423c0.155-1.292,1.584-2.477,2.817-2.477c0.769,0,1.758,0.789,1.847,1.775l0.064,0.526
	c-0.945,0.067-1.45,0.196-2.377,0.22C271.948,248.489,271.418,248.489,270.517,248.423z M273.53,244.522
	c-2.903,0-5.016,3.134-5.016,5.788c0,2.607,2.374,4.843,4.687,4.843c1.913,0,4.247-1.313,4.488-2.848
	c0.065-0.44-0.288-0.856-0.749-0.923c-0.506-0.087-0.768,0.308-1.055,0.725c-0.594,0.897-1.344,1.578-2.509,1.578
	c-1.605,0-3.321-1.865-3.234-3.134l0.044-0.66c0.793,0,1.232-0.021,2.003-0.042c1.122-0.021,1.826-0.175,2.946-0.133
	c0.486,0.021,0.835,0.133,1.299,0.133c0.44,0,0.728-0.527,0.704-0.964C277.029,246.736,275.73,244.522,273.53,244.522z"/>
<path fill="#77317A" d="M279.03,251.844c0-0.44,0.286-0.965,0.77-0.965c0.528,0,0.75,0.458,0.857,0.985
	c0.31,1.491,1.498,1.733,2.774,1.733c1.604,0,2.265-0.396,2.265-1.447c0-1.03-1.055-2.368-1.76-2.63
	c-0.704-0.242-1.562-0.176-2.464-0.286c-1.387-0.197-2.245-0.877-2.31-2.104c-0.09-1.471,1.936-2.544,3.585-2.544
	c1.651,0,3.563,0.614,3.563,1.95c0,0.418-0.218,0.768-0.837,0.768c-1.012,0-0.396-1.292-2.727-1.292
	c-0.879,0-2.001,0.437-2.001,1.271c0,0.812,3.123,0.372,4.225,0.898c1.34,0.657,2.241,2.258,2.241,4.011
	c0,2.345-1.892,2.894-3.719,2.894C281.339,255.086,279.03,254.056,279.03,251.844z"/>
<path fill="#77317A" d="M296.221,248.423c0.153-1.292,1.583-2.477,2.815-2.477c0.771,0,1.761,0.789,1.849,1.775l0.065,0.526
	c-0.944,0.067-1.453,0.196-2.373,0.22C297.651,248.489,297.124,248.489,296.221,248.423z M299.234,244.522
	c-2.901,0-5.014,3.134-5.014,5.788c0,2.607,2.377,4.843,4.686,4.843c1.913,0,4.245-1.313,4.488-2.848
	c0.064-0.44-0.286-0.856-0.748-0.923c-0.507-0.087-0.771,0.308-1.058,0.725c-0.593,0.897-1.341,1.578-2.509,1.578
	c-1.604,0-3.319-1.865-3.231-3.134l0.045-0.66c0.789,0,1.23-0.021,2.001-0.042c1.123-0.021,1.826-0.175,2.949-0.133
	c0.481,0.021,0.834,0.133,1.296,0.133c0.44,0,0.727-0.527,0.705-0.964C302.733,246.736,301.436,244.522,299.234,244.522z"/>
<path fill="#77317A" d="M310.31,244.567c0.926,0,1.873,0.307,2.508,0.853c0.286,0.241,0.463,0.594,0.641,0.901
	c0.218,0.349,0.349,0.744,0.416,1.16c0.111,0.614-0.067,1.008-0.088,1.666c-0.042,1.513-0.11,2.369,0,3.857
	c0.021,0.352,0.176,0.594,0.088,0.942c-0.109,0.441-0.374,0.79-0.835,0.877c-0.728,0.111-0.856-0.897-0.969-1.621
	c-0.09-0.636,0.22-1.01,0.241-1.666l0.045-3.134c0-0.329-0.045-0.549-0.045-0.835c-0.021-0.196,0.024-0.437-0.108-0.636
	c-0.133-0.263-0.223-0.525-0.419-0.656c-0.197-0.155-0.483-0.242-0.77-0.329c-0.749-0.196-1.3,0.108-2.004,0.416
	c-0.481,0.22-0.747,0.482-1.054,0.834c-0.153,0.154-0.463,0.284-0.571,0.503c-0.223,0.528-0.112,0.92-0.133,1.535l-0.09,4.712
	c0,0.351,0.068,0.682-0.043,0.965c-0.11,0.263-0.396,0.461-0.703,0.461c-0.353,0-0.684-0.175-0.747-0.504
	c-0.091-0.331,0.063-0.659,0.063-1.074l0.046-6.642c0-0.591,0-0.944,0.044-1.514c0.021-0.308,0.154-0.637,0.482-0.744
	c0.463-0.176,1.122,0.328,1.035,0.832C308.176,244.874,309.08,244.567,310.31,244.567z"/>
<path fill="#77317A" d="M320.055,237.904c-2.001,0-3.674,2.257-3.828,4.228c-0.063,1.055,0.199,1.666,0.354,2.764l0.286,1.995
	c-0.507,0-0.88,0.195-1.254,0.503c-0.198,0.153-0.486,0.307-0.486,0.615c0,0.37,0.397,0.548,0.772,0.611
	c0.374,0.09,0.551-0.108,0.9-0.175c0.09,0.307,0.177,0.506,0.199,0.811c0.044,0.419,0,0.659,0,1.098
	c0,1.861,0.352,2.938,0.219,4.712c-0.043,0.591,0.111,1.339,1.035,1.339c0.748,0,0.857-0.615,0.771-1.053
	c-0.265-1.295-0.331-2.081-0.419-3.399c-0.065-1.051-0.132-1.687-0.132-2.76l-0.043-1.205c1.231-0.265,2.044-0.482,2.727-0.594
	c0.55-0.109,1.102-0.548,0.99-1.117c-0.066-0.308-0.22-0.525-0.484-0.615c-0.241-0.088-0.395,0.023-0.638,0.066
	c-0.461,0.065-0.726,0.265-1.165,0.418c-0.55,0.176-0.882,0.283-1.43,0.482c0-0.265-0.023-0.395-0.069-0.636
	c-0.042-0.286-0.151-0.461-0.239-0.747c-0.396-1.293-0.353-2.694-0.264-3.463c0.131-1.073,1.319-2.498,2.135-2.368
	c0.503,0.111,1.032,1.207,1.032,1.732c0,0.416-0.638,0.549-0.614,0.985c0.021,0.461,0.394,0.812,0.833,0.812
	c0.837,0,1.189-1.03,1.189-1.863C322.432,239.567,321.42,237.904,320.055,237.904z"/>
<path fill="#77317A" d="M332.79,247.526c0.506,0.524,0.33,1.118,0.33,1.883c0,0,0.064,0.747,0,1.185
	c-0.307,1.775-1.893,2.98-3.695,2.851c-1.673-0.111-3.346-0.461-3.213-2.851c0.132-2.125,0.947-4.056,2.991-4.428
	c0.419-0.087,0.683-0.087,1.144-0.065c0.046,0.35,0.111,0.769,0.486,0.942C331.448,247.305,331.646,246.89,332.79,247.526z
	 M334.021,244.545c-0.351,0.021-0.615,0.174-0.746,0.437c-0.199,0.462-0.067,0.832-0.067,1.425
	c-1.057-1.162-2.199-1.665-3.783-1.645c-3.06,0-4.774,2.938-4.774,6.226c0,3.836,4.774,3.903,4.774,3.903
	c2.222,0,2.705-0.616,3.851-1.119c0,0.284-0.023,0.482,0.042,0.745c0.153,0.482,0.419,0.657,0.857,0.636
	c0.486-0.021,0.683-0.657,0.64-1.118c-0.11-0.855-0.222-1.338-0.222-2.19c0-1.14,0.354-1.754,0.309-2.917
	c-0.022-0.767-0.309-1.182-0.309-1.93c0-0.765,0.354-1.337,0.376-1.928C334.989,244.742,334.439,244.522,334.021,244.545z"/>
<path fill="#77317A" d="M341.173,244.567c0.921,0,1.868,0.307,2.506,0.853c0.286,0.241,0.464,0.594,0.639,0.901
	c0.22,0.349,0.353,0.744,0.418,1.16c0.111,0.614-0.065,1.008-0.09,1.666c-0.042,1.513-0.108,2.369,0,3.857
	c0.024,0.352,0.178,0.594,0.09,0.942c-0.111,0.441-0.375,0.79-0.836,0.877c-0.726,0.111-0.858-0.897-0.97-1.621
	c-0.087-0.636,0.222-1.01,0.244-1.666l0.042-3.134c0-0.329-0.042-0.549-0.042-0.835c-0.022-0.196,0.021-0.437-0.111-0.636
	c-0.133-0.263-0.22-0.525-0.419-0.656c-0.195-0.155-0.481-0.242-0.768-0.329c-0.749-0.196-1.299,0.108-2.004,0.416
	c-0.483,0.22-0.749,0.482-1.056,0.834c-0.154,0.154-0.461,0.284-0.571,0.503c-0.22,0.528-0.111,0.92-0.132,1.535l-0.088,4.712
	c0,0.351,0.065,0.682-0.045,0.965c-0.108,0.263-0.396,0.461-0.704,0.461c-0.35,0-0.682-0.175-0.747-0.504
	c-0.091-0.331,0.065-0.659,0.065-1.074l0.046-6.642c0-0.591,0-0.944,0.042-1.514c0.021-0.308,0.154-0.637,0.484-0.744
	c0.463-0.176,1.121,0.328,1.035,0.832C339.039,244.874,339.94,244.567,341.173,244.567z"/>
<path fill="#77317A" d="M352.18,240.136c-0.022-0.437-0.086-0.941-0.835-0.875c-0.505,0.043-0.882,0.394-0.969,0.875
	c-0.153,0.812-0.046,1.23-0.088,2.02c-0.021,0.723-0.042,1.116-0.065,1.862l-1.562-0.109c-0.638-0.044-1.408,0.109-1.408,0.724
	c0,0.612,0.638,0.898,1.231,0.877l1.673-0.045c0,0.701,0,1.118,0,1.796c-0.021,2.019-0.042,4.385-0.087,6.184
	c-0.023,0.591-0.046,1.401,0.966,1.335c0.815-0.042,0.858-0.59,0.837-1.051c-0.064-1.14-0.176-1.863-0.133-3.047
	c0.024-0.898-0.108-2.478-0.043-3.354c0.043-0.744,0.067-1.206,0.067-1.995l1.562,0.067c0.549,0.021,0.749,0.262,1.405,0.132
	c0.354-0.066,0.683-0.353,0.683-0.745c0.021-0.481,0.021-0.877-0.836-0.9c-0.461-0.021-0.769,0.178-1.252,0.133l-1.496-0.133
	c0-0.637-0.021-1.007,0-1.6C351.873,241.454,352.204,240.993,352.18,240.136z"/>
<path fill="#77317A" d="M355.916,251.844c0-0.44,0.286-0.965,0.771-0.965c0.529,0,0.747,0.458,0.856,0.985
	c0.308,1.491,1.496,1.733,2.773,1.733c1.605,0,2.265-0.396,2.265-1.447c0-1.03-1.055-2.368-1.76-2.63
	c-0.704-0.242-1.562-0.176-2.463-0.286c-1.386-0.197-2.243-0.877-2.311-2.104c-0.087-1.471,1.935-2.544,3.587-2.544
	c1.649,0,3.562,0.614,3.562,1.95c0,0.418-0.219,0.768-0.836,0.768c-1.012,0-0.397-1.292-2.727-1.292
	c-0.881,0-2.001,0.437-2.001,1.271c0,0.812,3.123,0.372,4.223,0.898c1.341,0.657,2.241,2.258,2.241,4.011
	c0,2.345-1.89,2.894-3.717,2.894C358.226,255.086,355.916,254.056,355.916,251.844z"/>
<path fill="#77317A" d="M164.692,270.332c0-2.193,1.89-4.495,3.674-4.495c0.175,0,0.417,0.176,0.417,0.328
	c0,0.33-0.177,0.593,0.351,0.614c0.529,0.021,0.439-0.373,1.938-0.373c0.527,0,1.187,0.265,1.164,0.835l-0.042,2.519
	c-0.021,1.865-0.881,3.246-3.478,3.246C166.826,273.005,164.692,272.302,164.692,270.332z M173.227,258.93
	c0,0-0.705,0.045-0.792,1.099c-0.066,0.876-0.241,1.512-0.241,2.453v2.895c-0.307,0-0.439,0.044-0.814-0.044
	c-0.747-0.175-1.806-0.549-2.748-0.549c-2.971,0-5.194,2.632-5.194,5.548c0,3.177,2.619,3.834,5.146,3.966
	c1.366,0.067,2.224-0.152,3.389-0.832c-0.109,0.438,0.264,0.899,0.725,0.899c0.837,0,0.596-0.528,0.619-0.986l0.085-1.953
	c0.047-0.877,0.177-1.4,0.244-2.257c0.175-2.653-0.33-4.23-0.067-6.882c0.109-1.011,0.286-1.995,0.419-2.632
	C174.085,259.259,173.734,258.975,173.227,258.93z"/>
<path fill="#77317A" d="M185.556,267.917c0.023,0.438-0.263,0.967-0.704,0.967c-0.46,0-0.813-0.112-1.298-0.134
	c-1.122-0.042-1.826,0.111-2.948,0.134c-0.769,0.021-1.209,0.042-2.002,0.042l-0.042,0.659c-0.09,1.269,1.628,3.135,3.234,3.135
	c1.166,0,1.912-0.682,2.507-1.579c0.286-0.416,0.549-0.811,1.057-0.724c0.46,0.065,0.814,0.482,0.747,0.922
	c-0.242,1.534-2.573,2.848-4.487,2.848c-2.311,0-4.686-2.236-4.686-4.844c0-2.653,2.11-5.788,5.016-5.788
	C184.147,263.554,185.446,265.77,185.556,267.917z M181.288,267.502c0.926-0.023,1.429-0.153,2.378-0.221l-0.067-0.526
	c-0.086-0.985-1.077-1.775-1.847-1.775c-1.231,0-2.661,1.183-2.816,2.478C179.837,267.523,180.367,267.523,181.288,267.502z"/>
<path fill="#77317A" d="M201.999,261.341c-0.551-0.613-0.328-1.338-2.245-1.338c-2.616,0-5.188,3.464-5.188,6.775
	c0,3.352,0.703,5.524,3.144,5.524c3.192,0,4.468-2.173,4.95-4.276c0.09-0.283,0.112-0.745,0.705-0.745
	c0.55,0,0.793,0.307,0.793,0.635c0,2.741-2.445,5.941-6.384,5.941c-4.421,0-4.618-3.837-4.686-7.169
	c-0.084-4.12,2.685-8.153,6.756-8.153c1.541,0,2.684,0.57,3.521,1.929c0.328,0.525,0.661,1.446-0.614,1.446
	C202.374,261.911,202.221,261.605,201.999,261.341z"/>
<path fill="#77317A" d="M213.922,267.632c0.047,0.416,0.047,0.681,0.047,1.117v2.96c0,0.834,0,1.973-0.837,1.973
	c-1.144,0-1.059-1.008-0.968-1.973c0.089-1.272,0.196-1.907,0.154-3.155c-0.043-1.515-0.154-3.441-1.959-3.441
	c-3.32,0-2.992,1.424-3.125,2.718c-0.153,1.754,0.154,2.872,0.111,4.602c-0.021,0.703-0.307,1.646-1.033,1.58
	c-0.528-0.046-0.968-0.549-0.926-1.073c0.244-2.414,0.529-3.86,0.508-5.899c0-0.393-0.354-0.593-0.354-1.008
	c0-0.35,0.307-0.504,0.307-0.832c0.026-2.215-0.175-3.728-0.175-5.635c0-0.766,0.308-1.929,1.059-1.754
	c0.503,0.111,0.789,0.637,0.789,1.163c0,1.14-0.286,1.886-0.217,3.091c0.042,0.897,0.154,1.402,0.35,2.258
	c0.879-0.593,1.583-0.723,2.641-0.681C212.757,263.753,213.614,265.593,213.922,267.632z"/>
<path fill="#77317A" d="M223.646,266.56c0.507,0.523,0.33,1.117,0.33,1.882c0,0,0.068,0.748,0,1.185
	c-0.308,1.775-1.891,2.98-3.696,2.851c-1.668-0.11-3.341-0.461-3.208-2.851c0.132-2.124,0.942-4.057,2.992-4.427
	c0.417-0.087,0.682-0.087,1.143-0.065c0.043,0.35,0.111,0.766,0.481,0.942C222.307,266.339,222.503,265.923,223.646,266.56z
	 M224.88,263.577c-0.355,0.023-0.618,0.177-0.747,0.439c-0.2,0.461-0.068,0.832-0.068,1.425c-1.054-1.163-2.198-1.666-3.785-1.646
	c-3.055,0-4.77,2.938-4.77,6.226c0,3.837,4.77,3.903,4.77,3.903c2.224,0,2.706-0.615,3.854-1.118c0,0.283-0.026,0.482,0.043,0.745
	c0.153,0.481,0.419,0.656,0.856,0.635c0.483-0.021,0.684-0.656,0.637-1.118c-0.105-0.855-0.218-1.338-0.218-2.19
	c0-1.14,0.351-1.754,0.308-2.917c-0.021-0.766-0.308-1.182-0.308-1.929c0-0.767,0.351-1.338,0.372-1.929
	C225.849,263.775,225.298,263.554,224.88,263.577z"/>
<path fill="#77317A" d="M231.964,261.319c-0.021,0.592,0,0.964,0,1.6l1.492,0.133c0.486,0.046,0.794-0.153,1.255-0.133
	c0.858,0.023,0.858,0.418,0.838,0.9c0,0.393-0.33,0.679-0.685,0.746c-0.656,0.129-0.856-0.112-1.408-0.134l-1.562-0.066
	c0,0.79-0.021,1.251-0.063,1.995c-0.068,0.877,0.063,2.456,0.043,3.354c-0.043,1.185,0.068,1.907,0.131,3.047
	c0.023,0.461-0.021,1.009-0.835,1.052c-1.013,0.066-0.991-0.745-0.969-1.336c0.048-1.798,0.067-4.164,0.09-6.183
	c0-0.679,0-1.095,0-1.797l-1.673,0.046c-0.594,0.021-1.234-0.266-1.234-0.877c0-0.615,0.773-0.769,1.408-0.725l1.562,0.109
	c0.025-0.745,0.047-1.141,0.068-1.863c0.042-0.788-0.068-1.205,0.09-2.019c0.086-0.481,0.461-0.833,0.965-0.875
	c0.75-0.065,0.814,0.438,0.835,0.875C232.335,260.026,232.005,260.488,231.964,261.319z"/>
<path fill="#77317A" d="M246.099,267.632c0.043,0.416,0.043,0.681,0.043,1.117v2.96c0,0.834,0,1.973-0.837,1.973
	c-1.144,0-1.06-1.008-0.97-1.973c0.09-1.272,0.196-1.907,0.154-3.155c-0.043-1.515-0.154-3.441-1.959-3.441
	c-3.32,0-2.99,1.424-3.123,2.718c-0.154,1.754,0.153,2.872,0.11,4.602c-0.021,0.703-0.308,1.646-1.032,1.58
	c-0.529-0.046-0.969-0.549-0.928-1.073c0.246-2.414,0.531-3.86,0.51-5.899c0-0.393-0.354-0.593-0.354-1.008
	c0-0.35,0.307-0.504,0.307-0.832c0.025-2.215-0.176-3.728-0.176-5.635c0-0.766,0.308-1.929,1.059-1.754
	c0.504,0.111,0.789,0.637,0.789,1.163c0,1.14-0.285,1.886-0.217,3.091c0.042,0.897,0.153,1.402,0.35,2.258
	c0.879-0.593,1.583-0.723,2.641-0.681C244.929,263.753,245.788,265.593,246.099,267.632z"/>
<path fill="#77317A" d="M255.82,266.56c0.507,0.523,0.328,1.117,0.328,1.882c0,0,0.068,0.748,0,1.185
	c-0.308,1.775-1.892,2.98-3.696,2.851c-1.668-0.11-3.341-0.461-3.208-2.851c0.132-2.124,0.943-4.057,2.991-4.427
	c0.418-0.087,0.683-0.087,1.144-0.065c0.043,0.35,0.111,0.766,0.482,0.942C254.48,266.339,254.675,265.923,255.82,266.56z
	 M257.053,263.577c-0.355,0.023-0.618,0.177-0.746,0.439c-0.202,0.461-0.07,0.832-0.07,1.425c-1.053-1.163-2.196-1.666-3.785-1.646
	c-3.055,0-4.77,2.938-4.77,6.226c0,3.837,4.77,3.903,4.77,3.903c2.224,0,2.706-0.615,3.855-1.118c0,0.283-0.026,0.482,0.042,0.745
	c0.153,0.481,0.418,0.656,0.857,0.635c0.481-0.021,0.682-0.656,0.636-1.118c-0.107-0.855-0.219-1.338-0.219-2.19
	c0-1.14,0.351-1.754,0.308-2.917c-0.021-0.766-0.308-1.182-0.308-1.929c0-0.767,0.351-1.338,0.377-1.929
	C258.021,263.775,257.47,263.554,257.053,263.577z"/>
<path fill="#77317A" d="M265.422,263.642c0.858,0,1.52,0.681,1.826,1.558c0.397-0.747,0.747-1.229,1.805-1.229
	c1.627,0,2.595,1.645,2.574,3.179c-0.021,0.789-0.111,1.359-0.287,2.082c-0.089,0.395,0,0.615-0.02,0.987
	c-0.048,0.833-0.552,1.25-0.467,2.084c0.021,0.24,0.091,0.371,0.091,0.59c-0.022,0.57-0.441,1.01-0.97,1.01
	c-0.419,0-0.814-0.265-0.879-0.659c-0.089-0.482,0.064-0.745,0.132-1.183c0.111-0.702,0.461-1.075,0.572-1.798
	c0.063-0.525,0.042-0.921,0.086-1.447c0.047-0.789,0.11-1.271,0.11-2.037c0-0.505-0.417-1.163-0.769-1.163
	c-0.396,0-0.726,0.416-0.968,0.811c-0.244,0.417-0.265,0.834-0.328,1.317c-0.07,0.678,0.063,1.094,0,1.796
	c-0.026,0.328-0.132,0.569-0.18,0.922c-0.133,0.877-0.106,1.446-0.265,2.3c-0.086,0.527-0.414,0.988-0.944,0.988
	c-0.484,0-0.947-0.419-0.878-0.9c0.175-1.119,0.482-1.73,0.636-2.849c0.091-0.769,0.067-1.205,0.11-1.994
	c-0.353-0.176-0.461-0.504-0.461-0.943c0-0.33,0.218-0.461,0.372-0.745c-0.461-0.506-0.789-1.053-1.164-0.988
	c-0.529,0.091-0.837,0.308-1.298,0.548l-1.012,0.593c-0.089,0.525-0.18,0.899-0.222,1.424c-0.043,0.527-0.196,2.719-0.196,3.596
	c0,0.701,0.043,1.075,0,1.754c-0.048,0.569-0.486,1.142-1.081,1.097c-0.481-0.067-0.899-0.548-0.836-1.01
	c0.134-0.724,0.354-1.118,0.486-1.841c0.176-1.095,0.108-1.752,0.108-2.848c0-0.615-0.044-1.535-0.044-1.535
	c-0.285-0.111-0.439-0.352-0.439-0.637c0-0.417,0.222-0.767,0.683-0.811c-0.132-0.306-0.174-0.547-0.089-0.899
	c0.11-0.438,0.175-0.811,0.836-0.811c0.461,0,0.858,0.262,0.926,0.723C263.993,264.211,264.342,263.642,265.422,263.642z"/>
<path fill="#77317A" d="M275.243,267.653c0.486-0.087,0.771,0.133,1.256,0.133c1.54,0,2.661-0.416,3.891-0.416
	c0.751,0,1.365,0.308,1.365,0.965c0,1.25-1.296,0.942-2.176,0.942c-1.478,0-1.52,0.197-3.018,0.197
	c-0.768,0-2.615,0.373-2.615-0.877C273.946,267.939,274.628,267.786,275.243,267.653z"/>
<path fill="#77317A" d="M284.792,264.388l0.414-0.307c-0.195-0.242-0.042-0.57,0.2-0.724c0.352-0.24,0.815-0.261,0.922,0.022
	c0.397-0.569,0.704-0.987,1.059-1.58c0.572-1.006,0.947-1.774,1.36-2.76c0.133-0.33,0.398-0.483,0.816-0.463
	c0.354,0.022,0.725,0.287,0.703,0.659c-0.063,0.899-0.835,2.082-1.582,3.223c-0.594,0.833-1.013,1.359-1.759,2.061
	c0.547,1.229,1.033,1.906,1.562,3.112c0.88,2.016,1.737,2.763,2.596,4.845c0.174,0.416-0.176,1.007-0.704,0.986
	c-1.033-0.044-2.246-2.96-3.146-5.084c-0.508-1.208-0.947-1.777-1.562-2.938c-0.18,0.196-0.333,0.329-0.508,0.459
	c-0.176,0.132-0.286,0.242-0.439,0.33c0.021,1.007,0.067,1.643,0.089,2.653c0.043,1.62,0.132,2.717,0.132,4.229
	c0,0.79-0.199,0.986-0.66,0.986c-0.747,0-0.97-0.438-0.97-0.877c0-1.293,0.069-1.753,0.069-2.871c0-1.402,0.042-2.149,0.042-3.551
	c-0.308,0-0.571-0.175-0.661-0.461c-0.153-0.462,0.439-0.724,0.726-1.03c0.026-1.601,0.047-2.565,0.047-4.208
	c0-0.79-0.021-1.339-0.021-2.106c0-0.569,0.259-1.03,0.746-1.072c1.276-0.133,0.747,1.973,0.656,3.266
	C284.835,262.393,284.835,263.139,284.792,264.388z"/>
<path fill="#77317A" d="M300.618,267.917c0.021,0.438-0.265,0.967-0.705,0.967c-0.461,0-0.814-0.112-1.296-0.134
	c-1.123-0.042-1.826,0.111-2.949,0.134c-0.768,0.021-1.208,0.042-2.002,0.042l-0.042,0.659c-0.09,1.269,1.625,3.135,3.234,3.135
	c1.165,0,1.912-0.682,2.506-1.579c0.286-0.416,0.549-0.811,1.057-0.724c0.462,0.065,0.816,0.482,0.747,0.922
	c-0.242,1.534-2.573,2.848-4.488,2.848c-2.309,0-4.686-2.236-4.686-4.844c0-2.653,2.112-5.788,5.018-5.788
	C299.209,263.554,300.506,265.77,300.618,267.917z M296.35,267.502c0.927-0.023,1.43-0.153,2.377-0.221l-0.068-0.526
	c-0.085-0.985-1.075-1.775-1.848-1.775c-1.229,0-2.663,1.183-2.816,2.478C294.9,267.523,295.428,267.523,296.35,267.502z"/>
<path fill="#77317A" d="M308.086,263.6c0.921,0,1.869,0.306,2.505,0.853c0.291,0.241,0.466,0.594,0.641,0.901
	c0.221,0.35,0.35,0.744,0.418,1.16c0.11,0.614-0.068,1.009-0.09,1.666c-0.042,1.513-0.107,2.369,0,3.857
	c0.021,0.353,0.179,0.594,0.09,0.943c-0.111,0.438-0.375,0.789-0.837,0.877c-0.725,0.108-0.857-0.897-0.969-1.622
	c-0.085-0.636,0.223-1.009,0.244-1.666l0.042-3.134c0-0.329-0.042-0.548-0.042-0.834c-0.021-0.197,0.021-0.439-0.111-0.636
	c-0.133-0.263-0.218-0.525-0.419-0.657c-0.195-0.154-0.48-0.241-0.767-0.329c-0.752-0.197-1.299,0.108-2.002,0.417
	c-0.486,0.219-0.752,0.48-1.059,0.833c-0.153,0.154-0.46,0.284-0.571,0.503c-0.217,0.527-0.112,0.92-0.133,1.535l-0.084,4.713
	c0,0.35,0.062,0.681-0.048,0.964c-0.11,0.263-0.396,0.462-0.704,0.462c-0.352,0-0.684-0.176-0.747-0.504
	c-0.091-0.331,0.063-0.659,0.063-1.076l0.047-6.641c0-0.593,0-0.944,0.043-1.514c0.021-0.308,0.154-0.636,0.482-0.744
	c0.465-0.175,1.123,0.329,1.037,0.832C305.953,263.906,306.853,263.6,308.086,263.6z"/>
<path fill="#77317A" d="M317.744,261.319c-0.021,0.592,0,0.964,0,1.6l1.493,0.133c0.486,0.046,0.794-0.153,1.255-0.133
	c0.858,0.023,0.858,0.418,0.836,0.9c0,0.393-0.329,0.679-0.683,0.746c-0.656,0.129-0.856-0.112-1.408-0.134l-1.561-0.066
	c0,0.79-0.022,1.251-0.065,1.995c-0.064,0.877,0.065,2.456,0.043,3.354c-0.043,1.185,0.068,1.907,0.132,3.047
	c0.021,0.461-0.021,1.009-0.836,1.052c-1.011,0.066-0.99-0.745-0.969-1.336c0.047-1.798,0.068-4.164,0.09-6.183
	c0-0.679,0-1.095,0-1.797l-1.673,0.046c-0.594,0.021-1.229-0.266-1.229-0.877c0-0.615,0.768-0.769,1.408-0.725l1.562,0.109
	c0.021-0.745,0.043-1.141,0.063-1.863c0.042-0.788-0.063-1.205,0.09-2.019c0.085-0.481,0.461-0.833,0.965-0.875
	c0.752-0.065,0.814,0.438,0.836,0.875C318.119,260.026,317.786,260.488,317.744,261.319z"/>
<path fill="#77317A" d="M199.165,251.639c0-0.44,0.286-0.965,0.771-0.965c0.529,0,0.747,0.458,0.856,0.985
	c0.308,1.491,1.496,1.733,2.773,1.733c1.605,0,2.265-0.396,2.265-1.447c0-1.03-1.055-2.368-1.76-2.63
	c-0.704-0.242-1.562-0.176-2.463-0.286c-1.386-0.197-2.243-0.877-2.311-2.104c-0.087-1.471,1.935-2.544,3.587-2.544
	c1.649,0,3.562,0.614,3.562,1.95c0,0.418-0.219,0.768-0.836,0.768c-1.012,0-0.397-1.292-2.727-1.292
	c-0.881,0-2.001,0.437-2.001,1.271c0,0.812,3.123,0.372,4.223,0.898c1.341,0.657,2.241,2.258,2.241,4.011
	c0,2.345-1.89,2.894-3.717,2.894C201.475,254.881,199.165,253.851,199.165,251.639z"/>
<path fill="#77317A" d="M389.958,214.257c0.04-0.846,0.626-1.836,1.53-1.793c0.984,0.05,1.346,0.965,1.502,1.994
	c0.422,2.913,2.609,3.494,4.986,3.616c2.995,0.154,4.261-0.549,4.371-2.587c0.104-1.993-1.732-4.685-3.018-5.262
	c-1.285-0.533-2.894-0.487-4.559-0.784c-2.563-0.517-4.097-1.917-4.096-4.299c-0.014-2.855,3.866-4.739,6.939-4.581
	c3.076,0.157,6.578,1.525,6.443,4.116c-0.039,0.806-0.486,1.465-1.634,1.407c-1.884-0.099-0.61-2.543-4.955-2.769
	c-1.638-0.08-3.772,0.66-3.854,2.271c-0.085,1.573,5.781,1.023,7.777,2.147c2.438,1.402,3.953,4.588,3.775,7.982
	c-0.233,4.548-3.816,5.429-7.218,5.254C393.935,220.766,389.733,218.551,389.958,214.257z"/>
</svg>
