<?xml version="1.0" encoding="utf-8"?>
<!-- Generator: Adobe Illustrator 16.0.0, SVG Export Plug-In . SVG Version: 6.00 Build 0)  -->
<!DOCTYPE svg PUBLIC "-//W3C//DTD SVG 1.1//EN" "http://www.w3.org/Graphics/SVG/1.1/DTD/svg11.dtd">
<svg version="1.1" id="Layer_1" xmlns="http://www.w3.org/2000/svg" xmlns:xlink="http://www.w3.org/1999/xlink" x="0px" y="0px"
	 width="26px" height="26px" viewBox="0 0 26 26" enable-background="new 0 0 26 26" xml:space="preserve">
<path fill="#FFFFFF" d="M13,0C5.82,0,0,5.82,0,13s5.82,13,13,13s13-5.82,13-13S20.18,0,13,0z M18.156,10.351
	c0.413,6.088-6.466,9.885-11.481,6.801c1.407,0.01,2.966-0.376,3.802-1.17c-1.217-0.197-2.079-0.749-2.413-1.828
	c0.356-0.033,0.856,0.077,1.097-0.073c-1.113-0.423-1.993-1.078-2.048-2.56c0.397,0.042,0.603,0.275,1.097,0.22
	c-0.72-0.462-1.542-2.216-0.804-3.51c1.306,1.448,2.937,2.572,5.484,2.779c-0.632-2.688,2.931-4.353,4.533-2.413
	c0.623-0.132,1.148-0.363,1.682-0.585c-0.218,0.61-0.662,0.995-1.097,1.389c0.472-0.088,0.972-0.149,1.316-0.366
	C19.264,9.511,18.573,9.989,18.156,10.351z"/>
</svg>
