<?xml version="1.0" encoding="utf-8"?>
<!-- Generator: Adobe Illustrator 16.0.0, SVG Export Plug-In . SVG Version: 6.00 Build 0)  -->
<!DOCTYPE svg PUBLIC "-//W3C//DTD SVG 1.1//EN" "http://www.w3.org/Graphics/SVG/1.1/DTD/svg11.dtd">
<svg version="1.1" id="Layer_1" xmlns="http://www.w3.org/2000/svg" xmlns:xlink="http://www.w3.org/1999/xlink" x="0px" y="0px"
	 width="13px" height="16.627px" viewBox="0 0 13 16.627" enable-background="new 0 0 13 16.627" xml:space="preserve">
<g>
	<path fill="#FFFFFF" d="M7.311,0.004c-3.264-0.125-6.013,2.42-6.138,5.684c-0.072,1.856,0.721,3.544,2.018,4.68l-1.518,2.336
		L0.72,14.17l-0.461,0.709c-0.389,0.594-0.332,1.317,0.126,1.617c0.459,0.302,1.146,0.064,1.535-0.528l1.168-1.798l0.953-1.467
		l0.843-1.297c0.613,0.246,1.276,0.393,1.973,0.42c3.265,0.125,6.013-2.42,6.139-5.685S10.576,0.129,7.311,0.004z M6.912,10.394
		c-0.454-0.018-0.888-0.103-1.295-0.244c-0.6-0.207-1.138-0.537-1.59-0.96C3.109,8.332,2.554,7.096,2.606,5.743
		c0.095-2.475,2.177-4.401,4.65-4.307c2.474,0.095,4.402,2.178,4.307,4.65C11.468,8.561,9.386,10.488,6.912,10.394z"/>
</g>
</svg>
