<?xml version="1.0" encoding="utf-8"?>
<!-- Generator: Adobe Illustrator 16.0.0, SVG Export Plug-In . SVG Version: 6.00 Build 0)  -->
<!DOCTYPE svg PUBLIC "-//W3C//DTD SVG 1.1//EN" "http://www.w3.org/Graphics/SVG/1.1/DTD/svg11.dtd">
<svg version="1.1" id="Layer_1" xmlns="http://www.w3.org/2000/svg" xmlns:xlink="http://www.w3.org/1999/xlink" x="0px" y="0px"
	 width="24px" height="22px" viewBox="0 0 24 22" enable-background="new 0 0 24 22" xml:space="preserve">
<g>
	<g>
		<path fill-rule="evenodd" clip-rule="evenodd" fill="#79317C" d="M2.4,4.889H21.6c1.326,0,2.4-1.094,2.4-2.444
			C24,1.095,22.926,0,21.6,0H2.4C1.074,0,0,1.095,0,2.444C0,3.794,1.074,4.889,2.4,4.889z M21.6,8.556H2.4C1.074,8.556,0,9.65,0,11
			c0,1.35,1.074,2.444,2.4,2.444H21.6c1.326,0,2.4-1.094,2.4-2.444C24,9.65,22.926,8.556,21.6,8.556z M21.6,17.111H2.4
			c-1.326,0-2.4,1.094-2.4,2.444S1.074,22,2.4,22H21.6c1.326,0,2.4-1.094,2.4-2.444S22.926,17.111,21.6,17.111z"/>
	</g>
</g>
</svg>
